<svg id="Layer_1" data-name="Layer 1" xmlns="http://www.w3.org/2000/svg" viewBox="0 0 46.34 45.35"><title>00005</title><path d="M35.2,46.1l2.13-1.51a2.09,2.09,0,0,0,.61-2.89L33.59,20.78,43,14.15c2.09-1.48,4.87-7.82,4-9s-7.6-.76-9.83.82L27.8,12.62,9.52,1.56a2.09,2.09,0,0,0-2.93-.38L4.45,2.69,20.74,18.24C15.76,22.57,9.54,28.38,6.79,31L2.52,29.29a0.71,0.71,0,0,0-.94.06L0.8,29.9,6.11,34.1l2.19,6.4,0.78-.56a0.72,0.72,0,0,0,.37-0.86L9.3,34.49c3.38-1.76,11-5.78,16.63-8.93Z" transform="translate(-0.8 -0.75)" style="fill:#010101"/></svg>