<svg id="Layer_1" data-name="Layer 1" xmlns="http://www.w3.org/2000/svg" viewBox="0 0 126.7 123.81"><title>00005</title><path d="M95.3,124.81l5.74-4.1a5.69,5.69,0,0,0,1.64-7.92L90.91,55.68,116.6,37.63C122.34,33.53,130,16.32,127.53,13s-20.77-2.18-26.78,2.18L75.08,33.55l-50-30.32a5.67,5.67,0,0,0-7.92-1.09l-6,4.1L55.68,48.58c-13.39,12-30.6,27.87-38,35.25L5.95,79.18a1.73,1.73,0,0,0-2.46.27L1.3,80.55,15.79,92l6,17.49L24,107.88a2.21,2.21,0,0,0,1.09-2.46L24.81,92.85C34.09,87.92,54.86,77,70.16,68.53Z" transform="translate(-1.3 -1)" style="fill:#363d96"/></svg>