<svg id="Layer_1" data-name="Layer 1" xmlns="http://www.w3.org/2000/svg" viewBox="0 0 46.8 33.13"><title>00002</title><path d="M46.13,15.93h-4a0.49,0.49,0,0,1-.53-0.36c-0.55-1.24-1.08-2.48-1.69-3.68A7.57,7.57,0,0,0,36.2,8.24a24,24,0,0,0-6.33-1.72,41.84,41.84,0,0,0-8.66-.3,31.79,31.79,0,0,0-7.74,1.41A8.32,8.32,0,0,0,8.2,12q-0.85,1.77-1.63,3.56a0.49,0.49,0,0,1-.53.35c-1.23,0-2.47,0-3.7,0a1.62,1.62,0,0,0-1.67.83v0.82a0.85,0.85,0,0,1,.09.19Q1,19.1,1.32,20.44a1.26,1.26,0,0,0,1.39,1.16H3.85l-0.19.29a8.27,8.27,0,0,0,.63,10.81,0.85,0.85,0,0,1,.21.56c0,1.34,0,2.68,0,4a1.79,1.79,0,0,0,2,2c1.28,0,2.54,0,3.8,0a1.81,1.81,0,0,0,2-2V35.65H35.85c0,0.6,0,1.18,0,1.75a1.75,1.75,0,0,0,1.85,1.83q2,0,4.07,0a1.77,1.77,0,0,0,1.87-1.9c0-1.34,0-2.68,0-4a1,1,0,0,1,.24-0.59,8.21,8.21,0,0,0,.93-10.29c-0.18-.27-0.38-0.53-0.61-0.85h1.16a1.27,1.27,0,0,0,1.46-1.19q0.29-1.43.59-2.86A1.23,1.23,0,0,0,46.13,15.93Zm-35.86.13c0.44-1,.91-1.92,1.39-2.87a3.86,3.86,0,0,1,2.06-1.78A20.59,20.59,0,0,1,19.58,10a37.55,37.55,0,0,1,7-.18A25.93,25.93,0,0,1,34,11.21a4.77,4.77,0,0,1,2.87,2.56l1.8,4h-29c0.23-.61.42-1.18,0.67-1.73h0Zm0.46,14.79a3.52,3.52,0,1,1,3.59-3.46,3.52,3.52,0,0,1-3.59,3.46h0Zm26.64,0a3.52,3.52,0,1,1,3.53-3.5h0a3.53,3.53,0,0,1-3.53,3.49h0Z" transform="translate(-0.67 -6.13)" style="fill:#25215a"/></svg>