<svg id="Layer_1" data-name="Layer 1" xmlns="http://www.w3.org/2000/svg" viewBox="0 0 46.38 16.49"><title>00003</title><path d="M10.39,25.91a3.33,3.33,0,1,0,3.33,3.33A3.33,3.33,0,0,0,10.39,25.91Zm-0.21,1.21v1.19a1,1,0,0,0-.27.11l-0.85-.85A2.13,2.13,0,0,1,10.18,27.12Zm-1.42.75,0.84,0.84a1,1,0,0,0-.13.28H8.27A2.13,2.13,0,0,1,8.75,27.87Zm-0.5,1.55H9.45a1,1,0,0,0,.12.31l-0.85.85A2.12,2.12,0,0,1,8.26,29.42Zm1.92,2h0A2.13,2.13,0,0,1,9,30.88L9.86,30a1,1,0,0,0,.32.14v1.19ZM12.51,29H11.31a1,1,0,0,0-.13-0.29L12,27.87A2.13,2.13,0,0,1,12.51,29ZM10.6,27.12a2.12,2.12,0,0,1,1.12.46l-0.85.85a1,1,0,0,0-.28-0.11V27.12Zm0,4.25V30.18A1,1,0,0,0,10.92,30l0.84,0.84A2.13,2.13,0,0,1,10.6,31.37Zm1.46-.79h0l-0.85-.85a1,1,0,0,0,.12-0.31h1.19A2.12,2.12,0,0,1,12.05,30.58Z" transform="translate(-0.87 -16.09)" style="fill:#2c3179"/><path d="M37.3,25.91a3.33,3.33,0,1,0,3.33,3.33A3.33,3.33,0,0,0,37.3,25.91Zm-0.21,1.21v1.19a1,1,0,0,0-.27.11L36,27.58A2.13,2.13,0,0,1,37.09,27.12Zm-1.42.75h0l0.84,0.84a1,1,0,0,0-.13.28h-1.2A2.13,2.13,0,0,1,35.66,27.87Zm-0.49,1.55h1.19a1,1,0,0,0,.12.31l-0.85.85A2.12,2.12,0,0,1,35.17,29.42Zm1.92,2h0a2.13,2.13,0,0,1-1.16-.49L36.77,30a1,1,0,0,0,.32.14v1.19ZM39.42,29h-1.2a1,1,0,0,0-.13-0.29l0.84-.84A2.13,2.13,0,0,1,39.42,29Zm-1.91-1.88a2.12,2.12,0,0,1,1.12.46l-0.85.85a1,1,0,0,0-.28-0.11V27.12Zm0,4.25h0V30.18A1,1,0,0,0,37.83,30l0.84,0.84A2.13,2.13,0,0,1,37.51,31.37ZM39,30.58h0l-0.85-.85a1,1,0,0,0,.12-0.31h1.19A2.12,2.12,0,0,1,39,30.58Z" transform="translate(-0.87 -16.09)" style="fill:#2c3179"/><path d="M46.14,24.56l0.18-2.95a1.23,1.23,0,0,0-1.23-1.23l-6.21-.92S31.71,15.54,25,16.15s-8.23,3.81-11.79,5a27.8,27.8,0,0,0-11,2.76C0.4,24.75,1,28.74,1,28.74c0.32,1,2.69,1.59,5.66,1.93a4,4,0,1,1,7.22.4H33.77A4,4,0,1,1,41,30.63c2.63-.24,4.46-0.49,4.46-0.49a2.8,2.8,0,0,0,1.78-2.52A5.16,5.16,0,0,0,46.14,24.56ZM18,21.56a1.54,1.54,0,0,0-.55-1.35c2.82-3.38,9.08-3.31,9.08-3.31L25.7,21.56H18Zm15.35,0H26.56l0.86-4.66a27,27,0,0,1,5.89,1.35l0.61,2Zm2,0-1.41-2.95,2.82,1.47a2.07,2.07,0,0,1,.55,1.47h-2Z" transform="translate(-0.87 -16.09)" style="fill:#2c3179"/></svg>