<svg id="Layer_1" data-name="Layer 1" xmlns="http://www.w3.org/2000/svg" viewBox="0 0 88.89 37.49"><title>00008</title><path d="M97.25,45c-5.52-4.42-16.9,4.44-19.47,6.55-0.79,1.16-1.43,2.18-2,3.11a25.56,25.56,0,0,1-4.59,5.94c-4.26,4-11.81,4.41-23,4.41H44.37a37,37,0,0,1-20.81-6.08L23.5,59c-1,1-10.75,2.75-10.75,2.75L24,64l-2.65,1.31a3.25,3.25,0,0,0,2.88,5.83l2.72-1.35a3.25,3.25,0,0,0,4.28,1.35l7.93-3.92a151.54,151.54,0,0,0,22-1l9.94,4.85a3.26,3.26,0,0,0,4.35-1.5,3.19,3.19,0,0,0,.26-0.84l2.06,1a3.25,3.25,0,0,0,2.85-5.84l-1.57-.77A22.82,22.82,0,0,0,83,61.75c4.1-2.5,8.17-6.75,9.17-7.08s4.5,2,7.17.5S103.5,50,97.25,45Z" transform="translate(-12.75 -33.97)" style="fill:#353e94"/><path d="M44.38,63c12.82,0,21.29.08,25.43-3.85a23.67,23.67,0,0,0,4.26-5.54c0.68-1.1,1.43-2.31,2.45-3.77-1.94-4.91-8.32-16.5-25-15.85C33.42,34.71,26.1,53.28,24,58A42.55,42.55,0,0,0,44.38,63Z" transform="translate(-12.75 -33.97)" style="fill:#353e94"/></svg>