<svg id="Layer_1" data-name="Layer 1" xmlns="http://www.w3.org/2000/svg" viewBox="0 0 21.88 11.72">
	<path d="M101.92,48.6h-0.73v-1a1.89,1.89,0,0,0-1.89-1.89H83.47a1.89,1.89,0,0,0-1.89,1.89v7.94a1.89,1.89,0,0,0,1.89,1.89H99.3a1.89,1.89,0,0,0,1.89-1.89v-1h0.73a1.54,1.54,0,0,0,1.54-1.54V50.13A1.54,1.54,0,0,0,101.92,48.6Zm-1.87,0v6.9a0.76,0.76,0,0,1-.76.76H83.47a0.76,0.76,0,0,1-.76-0.76V47.56a0.76,0.76,0,0,1,.76-0.76H99.3a0.76,0.76,0,0,1,.76.76v1Zm2.27,4.32a0.4,0.4,0,0,1-.4.4h-0.73V49.73h0.73a0.4,0.4,0,0,1,.4.4v2.79Z" transform="translate(-81.58 -45.67)"/>
	<rect x="2.69" y="2.67" width="1.89" height="6.38"/>
	<rect x="6.73" y="2.67" width="1.89" height="6.38"/>
	<rect x="10.76" y="2.67" width="1.89" height="6.38"/>
	<rect x="14.79" y="2.67" width="1.89" height="6.38"/>
</svg>