<svg id="Layer_1" data-name="Layer 1" xmlns="http://www.w3.org/2000/svg" viewBox="0 0 125.22 88.65"><title>00002</title><path d="M123,39.86c-3.59,0-7.17,0-10.76,0a1.31,1.31,0,0,1-1.42-1c-1.46-3.31-2.89-6.64-4.54-9.85a20.24,20.24,0,0,0-9.87-9.77,64.17,64.17,0,0,0-16.89-4.61,111.92,111.92,0,0,0-23.16-.79,85.06,85.06,0,0,0-20.71,3.77c-6.29,2-11.24,5.64-14.13,11.73q-2.25,4.73-4.36,9.54a1.31,1.31,0,0,1-1.43.95c-3.3,0-6.61.07-9.9-.05-2-.07-3.49.44-4.45,2.22v2.2a2.28,2.28,0,0,1,.25.51q0.75,3.58,1.48,7.17A3.38,3.38,0,0,0,6.84,55c1,0,1.91,0,3.06,0-0.26.38-.37,0.59-0.52,0.77-6.69,8.41-6,21.55,1.69,28.92a2.29,2.29,0,0,1,.56,1.49c0,3.59,0,7.17,0,10.76,0,3.4,1.86,5.27,5.29,5.3s6.77,0,10.15,0c3.57,0,5.38-1.84,5.41-5.43,0-1.37,0-2.75,0-4.17h63c0,1.62,0,3.16,0,4.69a4.68,4.68,0,0,0,4.95,4.89q5.44,0.08,10.88,0a4.72,4.72,0,0,0,5-5.09c0-3.59,0-7.17,0-10.76a2.54,2.54,0,0,1,.65-1.57,22,22,0,0,0,2.49-27.53c-0.48-.73-1-1.42-1.63-2.28H121c2.36,0,3.43-.9,3.9-3.17q0.78-3.82,1.58-7.64C127,41.61,125.65,39.86,123,39.86Zm-95.95.34c1.18-2.58,2.44-5.14,3.71-7.68a10.34,10.34,0,0,1,5.51-4.76A55.19,55.19,0,0,1,52,23.92a100.46,100.46,0,0,1,18.79-.48,69.31,69.31,0,0,1,19.69,3.77,12.78,12.78,0,0,1,7.68,6.86l4.81,10.73H25.26C25.89,43.19,26.4,41.66,27.07,40.2ZM28.3,79.77a9.41,9.41,0,1,1,9.62-9.25A9.4,9.4,0,0,1,28.3,79.77Zm71.28,0A9.41,9.41,0,1,1,109,70.45,9.44,9.44,0,0,1,99.58,79.78Z" transform="translate(-1.39 -13.63)" style="fill:#211c5a"/></svg>