<svg id="Layer_1" data-name="Layer 1" xmlns="http://www.w3.org/2000/svg" viewBox="0 0 76.88 124"><title>00001</title><path d="M60.23,26.17c4.58,1.51,8.75.44,12.32-2.8A12.38,12.38,0,0,0,72.06,5,16.91,16.91,0,0,0,66,2H62.09a7.42,7.42,0,0,1-.77.27c-6.46,1.52-10.8,8-9.5,14.32A12.06,12.06,0,0,0,60.23,26.17Z" transform="translate(-25.56 -2)" style="fill:#353a96"/><path d="M101.41,58.45c-4-7.16-8.13-14.29-12.1-21.48a11,11,0,0,0-10.45-6.1q-14.83,0-29.66,0A11,11,0,0,0,38.74,37c-3.87,7-7.87,14-11.8,21a14.62,14.62,0,0,0-.88,1.72,5.87,5.87,0,0,0,1,6.33c2.9,3.43,8.08,2.76,10.3-1.35q5.48-10.15,10.86-20.37a1.38,1.38,0,0,1,1.49-.9c0.84,0.06,1.68,0,2.66,0-0.22.52-.38,0.92-0.57,1.31Q42.68,63.88,33.54,83.07c-1.11,2.33-.25,3.66,2.34,3.67H49.52v1.43q0,12.23,0,24.45c0,2.38-.06,4.76,0,7.14A6.2,6.2,0,0,0,59.1,125c2.2-1.4,2.91-3.54,2.91-6q0-15.37,0-30.75V86.83h4c0,5.06,0,10,0,15,0,5.81,0,11.62,0,17.43,0,4.73,3.93,7.77,8.14,6.44,2.68-.85,4.33-3.27,4.33-6.44q0-15.5,0-31V86.74H80c4.2,0,8.39,0,12.59,0,2,0,2.91-1.4,2.13-3.26-0.09-.22-0.21-0.43-0.32-0.65L82.08,57,75.6,43.37a17.08,17.08,0,0,0,2.14,0,2,2,0,0,1,2.32,1.35c3.41,6.54,6.9,13,10.37,19.53a11.57,11.57,0,0,0,.88,1.44A6.16,6.16,0,0,0,99.92,67C102.62,65,103.21,61.66,101.41,58.45Z" transform="translate(-25.56 -2)" style="fill:#353a96"/></svg>