<svg id="Layer_1" data-name="Layer 1" xmlns="http://www.w3.org/2000/svg" viewBox="0 0 124.47 76.49"><title>00004</title><path d="M126.6,39.9c0.84-2-1-3.65-3.14-3.48-7.87.56-27.92,4.69-42.74,10-18.3,6.54-27.05,12.38-44.74,17C25.73,66.07,13.91,66.57,4.2,70.71c-2,.85-2.25,3.1-1.45,5.11l2.64,8.44a7.6,7.6,0,0,0,6.72,4.79l99.39,4.41c3,0,3.92-1.3,2.55-3.59a22.22,22.22,0,0,0-2.37-3.81c-2.26-3.31-.87-6.26.29-11S126.6,39.9,126.6,39.9ZM107.69,65.79v0a10.43,10.43,0,0,1-20.48,0,1.63,1.63,0,1,1,3.21-.57,7.16,7.16,0,0,0,5.31,5.57V58.49a3.38,3.38,0,1,1,3.43,0V70.77a7.16,7.16,0,0,0,5.31-5.57A1.64,1.64,0,0,1,107.69,65.79Z" transform="translate(-2.33 -16.97)" style="fill:#353c95"/><path d="M55.91,53.3V48.94a2.21,2.21,0,0,0-2.21-2.21H42V42.11H33.2v4.64H23.12a4.65,4.65,0,0,0-2.78.9l-6.59,4.87a4.7,4.7,0,0,0-1.91,3.79v8.63c7.92-2,16.5-2.78,24.15-4.79A142.91,142.91,0,0,0,55.91,53.3Z" transform="translate(-2.33 -16.97)" style="fill:#353c95"/><path d="M33.2,36v3.13H42V36a1.62,1.62,0,0,0-1.61-1.63H34.81A1.62,1.62,0,0,0,33.2,36Z" transform="translate(-2.33 -16.97)" style="fill:#353c95"/><path d="M24.51,28.22a5.64,5.64,0,0,0,3.12,0A3.48,3.48,0,0,0,33,30.74V30.8A1.94,1.94,0,1,0,34.43,29a3.48,3.48,0,0,0-2.84-4.68A5.73,5.73,0,1,0,24.51,28.22Z" transform="translate(-2.33 -16.97)" style="fill:#353c95"/></svg>