<svg id="Layer_1" data-name="Layer 1" xmlns="http://www.w3.org/2000/svg" viewBox="0 0 21.88 11.72">
	<path d="M25.42,48.6H24.69v-1a1.89,1.89,0,0,0-1.89-1.89H7a1.89,1.89,0,0,0-1.89,1.89v7.94A1.89,1.89,0,0,0,7,57.38H22.8a1.89,1.89,0,0,0,1.89-1.89v-1h0.73A1.54,1.54,0,0,0,27,52.92V50.13A1.54,1.54,0,0,0,25.42,48.6Zm-1.87,0v6.9a0.76,0.76,0,0,1-.76.76H7a0.76,0.76,0,0,1-.76-0.76V47.56A0.76,0.76,0,0,1,7,46.8H22.8a0.76,0.76,0,0,1,.76.76v1Zm2.27,4.32a0.4,0.4,0,0,1-.4.4H24.69V49.73h0.73a0.4,0.4,0,0,1,.4.4v2.79Z" transform="translate(-5.08 -45.67)"/>
	<rect x="2.69" y="2.67" width="1.89" height="6.38"/>
</svg>