<svg id="Layer_1" data-name="Layer 1" xmlns="http://www.w3.org/2000/svg" viewBox="0 0 124.09 57.78"><title>00007</title><path d="M54.33,69.27V67.18c-8.53,2.21-16.35,4.09-21,5.12,1.79-2.36,10.5-5.52,21-8.62V62.23c-8.88-2.24-17-4.45-21.76-5.84,2.64-1.18,11.4.13,21.76,2.37V53.48A4.85,4.85,0,0,1,55.82,50C42,42.76,16.11,30.27,8.53,34.25c-10.48,5.5-6.53,53,0,56.25,4.87,2.42,33.69-10.46,48-17.16A4.87,4.87,0,0,1,54.33,69.27Z" transform="translate(-2.07 -33.3)" style="fill:#353c95"/><rect x="54.26" y="17.3" width="15.83" height="21.54" rx="2.88" ry="2.88" style="fill:#353c95"/><path d="M120.7,34.25C115.51,29.63,87.33,43,73,50.36a4.83,4.83,0,0,1,1.16,3.12v4.87c8.29-2.06,15.86-3.79,20.49-4.79,0.58,1.47-8.71,4.74-20.49,8.19v1.82c8.62,2.26,16.49,4.51,21.19,5.9-0.2,1.54-9.54,0-21.19-2.52v2.33a4.87,4.87,0,0,1-2.14,4c13.89,7,43,20.79,48.67,17.2C128.22,85.75,127.73,40.5,120.7,34.25Z" transform="translate(-2.07 -33.3)" style="fill:#353c95"/></svg>