<svg id="Layer_1" data-name="Layer 1" xmlns="http://www.w3.org/2000/svg" viewBox="0 0 125.23 111.51"><title>00006</title><path d="M7,116.12c13.88-15.75,43.52-15.75,55.54-30.44C61.78,84.34,50,88.62,41,81.94A157.15,157.15,0,0,1,9.18,47.23c0-.53,2.4-0.27,5.87,1.07,0,0-10.15-5.87-12.28-10.15,14.15,5.33,28.57.54,43.52,6.94l9.08,3.74S49,43.48,48.7,41.62s0.53-3.2.53-4.81-1.87-1.6-1.87-3.47,2.13-1.6,2.4-3.47-2.94-3.47-2.94-5.34,2.4-3.47,2.4-5.07c-0.8-5.87-2.94-11.21-1.87-11.21,3.2,0,7.21,10.68,13.89,14.68,11.48,7.21,21.89,8.28,23.5,39.26,0,0,8.28-14.42,16.55-17.62,7.48-2.94,17.62-1.07,18.16,6.94,0,1.6,1.07,2.4,3.74,2.13a9.93,9.93,0,0,1,4.81.53s-9.88,2.94-9.35,5.07c1.07,5.87,1.87,11.75-5.87,25.9-4,7.2-19.76,16.28-38.46,19.22s-27.77,4.81-33.91,10.95a8.87,8.87,0,0,1-9.08,2.94c-4.27,0-8.81,4-18.16-1.07C11.32,116.38,7.31,118.25,7,116.12Z" transform="translate(-2.77 -8.25)" style="fill:#363d96"/></svg>