<svg id="Layer_1" data-name="Layer 1" xmlns="http://www.w3.org/2000/svg" viewBox="0 0 46.47 28.55"><title>00004</title><path d="M47.45,19.31A1,1,0,0,0,46.28,18a78,78,0,0,0-16,3.72c-6.83,2.44-10.1,4.62-16.7,6.34-3.83,1-8.24,1.19-11.86,2.73a1.38,1.38,0,0,0-.54,1.91l1,3.15a2.84,2.84,0,0,0,2.51,1.79l37.1,1.65c1.14,0,1.46-.49,1-1.34a8.29,8.29,0,0,0-.89-1.42c-0.84-1.24-.32-2.34.11-4.1S47.45,19.31,47.45,19.31ZM40.39,29h0a3.9,3.9,0,0,1-7.65,0,0.61,0.61,0,0,1,.48-0.72h0.12a0.62,0.62,0,0,1,.6.52,2.67,2.67,0,0,0,2,2.08V26.25a1.26,1.26,0,1,1,1.28,0v4.58a2.67,2.67,0,0,0,2-2.08A0.61,0.61,0,1,1,40.39,29Z" transform="translate(-1.06 -10.75)" style="fill:#010101"/><path d="M21.06,24.31V22.68a0.82,0.82,0,0,0-.82-0.82H15.87V20.13H12.58v1.73H8.82a1.74,1.74,0,0,0-1,.34L5.32,24a1.76,1.76,0,0,0-.71,1.42v3.22c3-.75,6.16-1,9-1.79A53.35,53.35,0,0,0,21.06,24.31Z" transform="translate(-1.06 -10.75)" style="fill:#010101"/><path d="M12.58,17.84V19h3.29V17.84a0.61,0.61,0,0,0-.6-0.61H13.19A0.61,0.61,0,0,0,12.58,17.84Z" transform="translate(-1.06 -10.75)" style="fill:#010101"/><path d="M9.34,14.95a2.11,2.11,0,0,0,1.17,0,1.3,1.3,0,0,0,2,.94v0a0.72,0.72,0,1,0,.74-0.71l-0.19,0A1.3,1.3,0,0,0,12,13.47,2.14,2.14,0,1,0,9.34,14.95Z" transform="translate(-1.06 -10.75)" style="fill:#010101"/></svg>