<svg id="Layer_1" data-name="Layer 1" xmlns="http://www.w3.org/2000/svg" viewBox="0 0 128.57 47.73"><title>00003</title><path d="M125.87,61.09V52.91a3.55,3.55,0,0,0-3.55-3.55s-9.5-.46-16.32-2.76-23.17-9.66-38.72-9.66-35.5,11-35.5,11S8.89,52.78,2.94,57.06A20.2,20.2,0,0,0-.29,66.4c0,2.44,2,7.5,3.22,8.46,3,2,9.83,3.19,16.48,3.9a13.08,13.08,0,1,1,23.68,1H87a13.08,13.08,0,1,1,23.93-1.72c6.3-1,11.4-2,11.4-2,2,0,6-3.75,6-6.9S125.87,61.09,125.87,61.09Zm-85.5-8.51s0.69-3.57-1.61-5.29a69.55,69.55,0,0,1,29.68-8.51L64,52.58H40.37Zm50.85,0H66l4.14-13.8S85.58,40.5,91.67,44l1.27,4.95Zm12.19,0H96.62l-2.88-7.94a18.41,18.41,0,0,1,9.66,5.75v2.19Z" transform="translate(0.29 -36.94)" style="fill:#2c2a6b"/><path d="M31.31,63A10.83,10.83,0,1,0,42.14,73.84,10.83,10.83,0,0,0,31.31,63h0Zm-5.48,5.9,3,3a3.1,3.1,0,0,0-.62,1.38H24A7.36,7.36,0,0,1,25.83,68.91Zm-1.88,5.34h4.27a3.1,3.1,0,0,0,.59,1.45l-3,3A7.36,7.36,0,0,1,23.95,74.25Zm7,6.95a7.36,7.36,0,0,1-4.47-1.84l3-3a3.1,3.1,0,0,0,1.45.59v4.27h0Zm0-10.45a3.1,3.1,0,0,0-1.41.56l-3-3a7.36,7.36,0,0,1,4.44-1.8v4.27h0Zm7.75,2.59H34.39a3.1,3.1,0,0,0-.58-1.38l3-3A7.36,7.36,0,0,1,38.66,73.33Zm-6.85-6.84a7.36,7.36,0,0,1,4.39,1.84l-3,3a3.1,3.1,0,0,0-1.38-.58V66.49h0Zm0,14.72V76.92a3.1,3.1,0,0,0,1.43-.62l3,3a7.36,7.36,0,0,1-4.43,1.88v0Zm5.06-2.52-3-3.06a3.1,3.1,0,0,0,.55-1.38h4.27a7.36,7.36,0,0,1-1.79,4.43v0Z" transform="translate(0.29 -36.94)" style="fill:#2c2a6b"/><path d="M98.57,63a10.83,10.83,0,1,0,10.83,10.83A10.83,10.83,0,0,0,98.57,63h0Zm-5.48,5.9,3,3a3.1,3.1,0,0,0-.62,1.42H91.21A7.36,7.36,0,0,1,93.09,68.91Zm-1.88,5.34h4.27a3.1,3.1,0,0,0,.59,1.45l-3,3A7.36,7.36,0,0,1,91.21,74.25Zm7,6.95a7.36,7.36,0,0,1-4.47-1.84l3-3a3.1,3.1,0,0,0,1.45.59v4.27h0Zm0-10.45a3.1,3.1,0,0,0-1.41.56l-3-3a7.36,7.36,0,0,1,4.44-1.8v4.27h0Zm7.77,2.59h-4.27a3.1,3.1,0,0,0-.58-1.38l3-3A7.36,7.36,0,0,1,105.94,73.33Zm-6.85-6.87a7.36,7.36,0,0,1,4.39,1.84l-3,3a3.1,3.1,0,0,0-1.38-.58V66.47h0Zm0,14.72V76.92a3.1,3.1,0,0,0,1.41-.62l3,3a7.36,7.36,0,0,1-4.44,1.87h0Zm5.06-2.52-3-3a3.1,3.1,0,0,0,.55-1.38h4.27a7.36,7.36,0,0,1-1.8,4.43h0Z" transform="translate(0.29 -36.94)" style="fill:#2c2a6b"/></svg>