<svg id="Layer_1" data-name="Layer 1" xmlns="http://www.w3.org/2000/svg" viewBox="0 0 46.79 41.76"><title>00006</title><path d="M2.28,41.43C7.51,35.5,18.65,35.54,23.09,30c-0.25-.51-4.74,1.15-8.11-1.43a60,60,0,0,1-11.92-13c0-.24.89-0.07,2.17,0.41,0,0-3.85-2.19-4.63-3.75,5.3,2,10.73.16,16.29,2.64l3.35,1.44s-2.43-2-2.48-2.71,0.22-1.2.17-1.76-0.71-.6-0.74-1.28,0.83-.58.87-1.28S16.94,8,17,7.24s0.9-1.3.89-1.92C17.83,2.95,17,1,17.45,1c1.17,0,2.64,4,5.11,5.51,4.34,2.66,8.22,3.11,8.78,14.69,0,0,3.14-5.41,6.15-6.56,2.79-1.07,6.57-.39,6.79,2.64,0,0.56.38,0.92,1.36,0.8a4.21,4.21,0,0,1,1.76.16s-3.66,1.13-3.51,1.92c0.4,2.16.72,4.39-2.16,9.66C40.27,32.5,34.38,35.9,27.35,37S17,38.75,14.66,41.09a3.41,3.41,0,0,1-3.35,1.12c-1.62,0-3.3,1.5-6.79-.44C3.88,41.48,2.39,42.24,2.28,41.43Z" transform="translate(-0.61 -1)" style="fill:#090a0a"/></svg>