<svg id="Layer_1" data-name="Layer 1" xmlns="http://www.w3.org/2000/svg" viewBox="0 0 93.56 122.2"><title>00016</title><path d="M-536.34,109.3a30.23,30.23,0,0,0-2.34-12,31.72,31.72,0,0,0-17.79-17.56l0.15-.33,3.7-7.47c0.49-1,1-2,1.47-3a1.18,1.18,0,0,0-.55-1.69,0.64,0.64,0,0,1-.1-0.09h-0.77a2.3,2.3,0,0,0-.86,1q-2.55,5.18-5.12,10.35l-0.21.38a32,32,0,0,0-20.06.54c-0.09-.16-0.17-0.31-0.25-0.46q-2.71-5.45-5.4-10.9a1.82,1.82,0,0,0-.89-0.94H-586a1.56,1.56,0,0,0-.74.71,1.36,1.36,0,0,0,.13,1.19q2.31,4.63,4.6,9.27l1,2.05a31.9,31.9,0,0,0-9.8,7,31.45,31.45,0,0,0-6.54,10.12c-1.44,3.59-2.65,10.07-2.19,11.77h63.23ZM-556.26,91a2.48,2.48,0,0,1,2.45,2.49A2.48,2.48,0,0,1-556.3,96a2.49,2.49,0,0,1-2.48-2.47A2.49,2.49,0,0,1-556.26,91Zm-22.53,0a2.47,2.47,0,0,1,2.45,2.48A2.47,2.47,0,0,1-578.82,96a2.46,2.46,0,0,1-2.47-2.51A2.46,2.46,0,0,1-578.79,91Z" transform="translate(614.81 -67.24)"/><path d="M-602.24,112.78a6.25,6.25,0,0,0-7.16-5.42,6.24,6.24,0,0,0-5.23,4.94,3.32,3.32,0,0,1-.18.48v36.64a4.4,4.4,0,0,1,.19.53,6.28,6.28,0,0,0,10.33,3.37,6.24,6.24,0,0,0,2.13-4.89q0-17.23,0-34.46A10.65,10.65,0,0,0-602.24,112.78Z" transform="translate(614.81 -67.24)"/><path d="M-536.33,112.18c0-.1,0-0.19,0-0.29s0-.21-0.05-0.31h-63.26v0.59q0,24.41,0,48.81a8.93,8.93,0,0,0,.07,1,7.55,7.55,0,0,0,7.53,6.62c2.13,0,4.25,0,6.38,0h0.57v0.56q0,3.16,0,6.33c0,2.61,0,5.21,0,7.82a6.26,6.26,0,0,0,8.67,5.63,6.31,6.31,0,0,0,3.89-5.88q0-6.93,0-13.86v-0.58h11.07v0.58q0,6.76,0,13.52c0,0.33,0,.67,0,1a6.29,6.29,0,0,0,8.06,5.41,6.3,6.3,0,0,0,4.47-6q0-6.93,0-13.86v-0.65h4.94a7.71,7.71,0,0,0,1.14-.09,7.4,7.4,0,0,0,5.58-3.93,7.73,7.73,0,0,0,.88-3.83Q-536.34,136.47-536.33,112.18Z" transform="translate(614.81 -67.24)"/><path d="M-521.26,131.16q0-8.65,0-17.31a7.86,7.86,0,0,0-.08-1.48,6.24,6.24,0,0,0-7.08-5,6.28,6.28,0,0,0-5.37,6.22q0,17.52,0,35a6.63,6.63,0,0,0,0,.81,6.32,6.32,0,0,0,4.57,5.26,6.29,6.29,0,0,0,6.64-2.21,6.28,6.28,0,0,0,1.29-4C-521.27,142.7-521.26,136.93-521.26,131.16Z" transform="translate(614.81 -67.24)"/></svg>