<svg id="Layer_1" data-name="Layer 1" xmlns="http://www.w3.org/2000/svg" viewBox="0 0 64.44 63.8"><title>00012</title><path d="M47.44,52.87c2.15,0.68,8.15,2.05,17.06.06-0.15-2.84,1.28-5.2,1.82-8.56,0.6-3.69-1.42-5.47-2.42-15.59a0.17,0.17,0,0,0-.17-0.15H61.58a0.17,0.17,0,0,0-.17.16c-0.52,11.26-4.42,10-5.75,14.84-0.73-4.84-4.62-5.37-6.15-14.82a0.22,0.22,0,0,0-.21-0.18H47.66a0.22,0.22,0,0,0-.21.22c0.08,12.66-2.7,12.62-2.13,17C45.82,49.75,47.32,50.35,47.44,52.87Z" transform="translate(-23.45 -28.62)" style="fill:#c52026"/><path d="M87.89,83.42S65.53,57.54,64.61,53.93A42,42,0,0,1,55.48,55a27.79,27.79,0,0,1-8.06-1.07c-0.31,3.48-24,29.5-24,29.5a65.59,65.59,0,0,0,10.48,4.85,82.68,82.68,0,0,0,11.32-19,82.37,82.37,0,0,1-9.68,19.6,69.43,69.43,0,0,0,9.7,2.57,79,79,0,0,0,3.64-16.36,84.43,84.43,0,0,1-2.36,16.59,56,56,0,0,0,9.12.78,57,57,0,0,0,10.8-1.07,81.93,81.93,0,0,1-5.82-22.1A83.21,83.21,0,0,0,68.21,91a71.76,71.76,0,0,0,9.72-2.91,83.34,83.34,0,0,1-9.09-16.81A80.83,80.83,0,0,0,79.39,87.51,62.41,62.41,0,0,0,87.89,83.42Z" transform="translate(-23.45 -28.62)" style="fill:#c52026"/></svg>