<svg id="Layer_1" data-name="Layer 1" xmlns="http://www.w3.org/2000/svg" viewBox="0 0 130.34 102.59"><title>00015</title><polygon points="67.14 48.78 67.15 48.77 65.41 45.32 65.4 45.33 67.14 48.78" style="fill:none"/><path d="M3.38,94.88a4,4,0,0,0-.31,4l0,0L5,98Z" transform="translate(-2.66 -16.59)" style="fill:#eaeaea"/><path d="M69.8,65.37l-1.74-3.45-0.06,0,0.06,0L56,38a1.39,1.39,0,0,0-2.49,1.25l0.26,0.53L67.31,66.62Z" transform="translate(-2.66 -16.59)" style="fill:#e21d37"/><path d="M72.87,63.85l0-.06c-1.64-3.25-4.34-5.22-6.07-4.44l3,6Z" transform="translate(-2.66 -16.59)" style="fill:#eaeaea"/><circle cx="68.06" cy="61.9" r="0.01" transform="translate(-12.54 94.2) rotate(-74.38)" style="fill:#b5b5b6"/><path d="M68.06,61.92h0l-0.06,0Z" transform="translate(-2.66 -16.59)" style="fill:#b5b5b6"/><path d="M67.31,66.62L53.78,39.74S34.08,73.13,27.62,76.43l-4.14,2.1,4.08,8.1Z" transform="translate(-2.66 -16.59)" style="fill:#eaeaea"/><path d="M27.56,86.63l-4.08-8.1c-7.32,3.7-17.84,9-17.84,9a5.35,5.35,0,0,0-2.37,7.18l0.1,0.2L5,98Z" transform="translate(-2.66 -16.59)" style="fill:#e21d37"/><polygon points="67.14 48.78 68.84 52.16 68.85 52.16 67.15 48.77 67.14 48.78" style="fill:none"/><path d="M6.6,101.08a5.34,5.34,0,0,1-.5-0.79L5,98l-1.86.94A4,4,0,0,0,6.6,101.08Z" transform="translate(-2.66 -16.59)" style="fill:#bab9b9"/><path d="M71.5,68.75l-1.7-3.39-2.49,1.25,13.5,26.82L81,93.78a1.39,1.39,0,0,0,2.49-1.25l-12-23.77-0.06,0Z" transform="translate(-2.66 -16.59)" style="fill:#ba1f36"/><path d="M72.8,71.31c1.64-.91,1.68-4.23.07-7.46l-3.05,1.54Z" transform="translate(-2.66 -16.59)" style="fill:#bab9b9"/><circle cx="71.5" cy="68.76" r="0.01" transform="translate(-20.93 94.37) rotate(-69.06)" style="fill:#b5b5b6"/><path d="M71.45,68.79l0.06,0h0Z" transform="translate(-2.66 -16.59)" style="fill:#b5b5b6"/><path d="M27.56,86.63l3.55,7.06,4.15-2.09c6.45-3.25,45.55,1.84,45.55,1.84L67.31,66.62Z" transform="translate(-2.66 -16.59)" style="fill:#bab9b9"/><path d="M5,98l1.15,2.28a5.43,5.43,0,0,0,7.18,2.37l17.83-9-3.55-7.06Z" transform="translate(-2.66 -16.59)" style="fill:#ba1f36"/><polygon points="101.5 27.66 106.59 30.72 80.02 43.35 97.89 30.59 92.37 27.21 130.34 12.15 101.5 27.66" style="fill:#f37b21"/><polygon points="100.68 54.02 103.14 56.37 86.7 60.09 98.29 55.2 95.63 52.62 118.75 48.97 100.68 54.02" style="fill:#f37b21"/><polygon points="79.42 15.06 82.8 15.41 72.09 28.42 78.25 17.46 74.57 17.05 90.6 0 79.42 15.06" style="fill:#f37b21"/><polygon points="63.98 14.48 65.48 14.64 60.75 20.39 63.47 15.54 61.84 15.36 68.93 7.83 63.98 14.48" style="fill:#f37b21"/><polygon points="94.93 69.5 96.01 70.54 88.74 72.16 93.87 70.02 92.7 68.87 102.92 67.29 94.93 69.5" style="fill:#f37b21"/><path d="M27.34,111.82L18,100.27l-4.31,2.17,14.23,16a1.38,1.38,0,0,0,1.86.61l1.73-.87a1.38,1.38,0,0,0,.61-1.86l-2.59-4A1.8,1.8,0,0,1,27.34,111.82Z" transform="translate(-2.66 -16.59)" style="fill:#f37b21"/><path d="M18,100.27l9.32,11.55a1.8,1.8,0,0,0,2.22.47L20.87,98.84Z" transform="translate(-2.66 -16.59)" style="fill:#f37b21"/><path d="M18,100.27l9.32,11.55a1.8,1.8,0,0,0,2.22.47L20.87,98.84Z" transform="translate(-2.66 -16.59)" style="opacity:0.25"/></svg>