<svg id="Layer_1" data-name="Layer 1" xmlns="http://www.w3.org/2000/svg" viewBox="0 0 27.18 22.21"><title>00010-4</title><path d="M109,38.25l-8.15,7.86H97.3a0.77,0.77,0,0,0-.77.77v4.51a0.77,0.77,0,0,0,.77.77h3.57L109,60a0.78,0.78,0,0,0,1.32-.56V38.81A0.78,0.78,0,0,0,109,38.25Z" transform="translate(-96.53 -38.03)"/><path d="M112.9,44.2l-1.39,1.33a5,5,0,0,1-.1,7.07L112.76,54A7,7,0,0,0,112.9,44.2Z" transform="translate(-96.53 -38.03)"/><path d="M116.1,41l-1.38,1.34a9.57,9.57,0,0,1-.11,13.46L116,57.15A11.49,11.49,0,0,0,116.1,41Z" transform="translate(-96.53 -38.03)"/><path d="M119.3,38l-1.39,1.33a13.93,13.93,0,0,1-.22,19.52L119,60.24A15.85,15.85,0,0,0,119.3,38Z" transform="translate(-96.53 -38.03)"/></svg>