<svg id="Layer_1" data-name="Layer 1" xmlns="http://www.w3.org/2000/svg" viewBox="0 0 190.54 56.65"><title>tanks-icon-02</title><rect x="63.44" width="19.49" height="1.26"/><rect x="182.44" y="2.06" width="8.1" height="4.43"/><path d="M111,72.38H-12.4a5.07,5.07,0,0,0-2.73,9.34L1.45,92.33h99l13.69-11.45A4.81,4.81,0,0,0,111,72.38ZM-11.91,81.09a3.42,3.42,0,0,1-3.42-3.42,3.42,3.42,0,0,1,3.42-3.42,3.42,3.42,0,0,1,3.42,3.42A3.42,3.42,0,0,1-11.91,81.09ZM-0.79,86a5.69,5.69,0,0,1-5.69-5.69A5.69,5.69,0,0,1-.79,74.65,5.69,5.69,0,0,1,4.9,80.35,5.69,5.69,0,0,1-.79,86Zm14.54,4a7.7,7.7,0,1,1,7.7-7.7A7.7,7.7,0,0,1,13.75,90.05Zm19.49,0a7.7,7.7,0,1,1,7.7-7.7A7.7,7.7,0,0,1,33.24,90.05Zm19.49,0a7.7,7.7,0,1,1,7.7-7.7A7.7,7.7,0,0,1,52.73,90.05Zm19.49,0a7.7,7.7,0,1,1,7.7-7.7A7.7,7.7,0,0,1,72.22,90.05Zm19.49,0a7.7,7.7,0,1,1,7.7-7.7A7.7,7.7,0,0,1,91.71,90.05ZM110.34,81a3.56,3.56,0,1,1,3.56-3.56A3.56,3.56,0,0,1,110.34,81Z" transform="translate(22.86 -35.67)"/><path d="M112.11,67.89H-13.81c-8.36,0-9.05,9.52-9.05,9.52h3.21s0.21-6.9,7.95-6.39c4.16,0.28,118.66,0,122,0a6.87,6.87,0,0,1,7.3,6l3.5,0.07S119.68,67.89,112.11,67.89Z" transform="translate(22.86 -35.67)"/><polygon points="107.46 13.53 32.71 13.53 14.37 30.95 127.64 30.95 107.46 13.53"/><path d="M88.27,43c0-2.72-5.88-4.93-8.6-4.93H35.76L28.42,47.9H83.34A4.93,4.93,0,0,0,88.27,43Z" transform="translate(22.86 -35.67)"/><polygon points="112.35 5.88 182.06 5.88 182.06 3.1 108.68 3.1 112.35 5.88"/><circle cx="36.61" cy="46.68" r="2.06"/><circle cx="22.07" cy="44.67" r="1.11"/><circle cx="10.95" cy="42" r="0.87"/><circle cx="56.1" cy="46.68" r="2.06"/><circle cx="75.59" cy="46.68" r="2.06"/><circle cx="95.08" cy="46.68" r="2.06"/><circle cx="114.57" cy="46.68" r="2.06"/><circle cx="133.2" cy="41.73" r="1.08"/></svg>