<svg id="Layer_1" data-name="Layer 1" xmlns="http://www.w3.org/2000/svg" viewBox="0 0 207.95 156.5"><title>00018</title><path d="M312.78,350.46a45.73,45.73,0,1,0,45.73,45.73A45.73,45.73,0,0,0,312.78,350.46Zm0,71.1a25.38,25.38,0,1,1,25.38-25.38A25.38,25.38,0,0,1,312.78,421.57Z" transform="translate(-267.05 -285.42)"/><circle cx="45.73" cy="110.77" r="7.05"/><circle cx="45.73" cy="91.86" r="2.48"/><circle cx="299.4" cy="382.82" r="2.48" transform="translate(-450.05 38.42) rotate(-45)"/><circle cx="26.82" cy="110.77" r="2.48"/><circle cx="299.4" cy="409.57" r="2.48" transform="translate(-468.96 46.25) rotate(-45)"/><circle cx="45.73" cy="129.68" r="2.48"/><circle cx="326.15" cy="409.57" r="2.48" transform="translate(-461.13 65.16) rotate(-45)"/><circle cx="64.64" cy="110.77" r="2.48"/><circle cx="326.15" cy="382.82" r="2.48" transform="translate(-442.22 57.33) rotate(-45)"/><path d="M444.79,381.13A30.21,30.21,0,1,0,475,411.34,30.21,30.21,0,0,0,444.79,381.13Zm0,48.17a18,18,0,1,1,18-18A18,18,0,0,1,444.79,429.3Z" transform="translate(-267.05 -285.42)"/><circle cx="177.74" cy="125.92" r="5.13"/><circle cx="177.74" cy="113.31" r="1.88"/><circle cx="435.87" cy="402.42" r="1.88" transform="translate(-423.94 140.66) rotate(-45)"/><circle cx="165.13" cy="125.92" r="1.88"/><circle cx="435.87" cy="420.26" r="1.88" transform="translate(-436.55 145.88) rotate(-45)"/><circle cx="177.74" cy="138.53" r="1.88"/><circle cx="453.71" cy="420.26" r="1.88" transform="translate(-431.33 158.49) rotate(-45)"/><circle cx="190.35" cy="125.92" r="1.88"/><circle cx="453.71" cy="402.42" r="1.88" transform="translate(-418.72 153.27) rotate(-45)"/><path d="M373.2,294.32a3,3,0,0,0-3-2.72H326.9a1.77,1.77,0,0,0-1.75,2.09l7.5,41.77a2.91,2.91,0,0,0,2.36,2.36c16.49,2.88,24.65,16.74,27,21.49a2.86,2.86,0,0,0,2.57,1.6h11.64a1.65,1.65,0,0,0,1.65-1.65v-21.5a4.24,4.24,0,0,0,0-.45Z" transform="translate(-267.05 -285.42)" style="fill:none"/><path d="M322.6,293.42a2.16,2.16,0,0,0-2.13-1.81H301.75a1.6,1.6,0,0,0-1.59,1.44L296.05,336a1.44,1.44,0,0,0,1.43,1.57h30.76a1.27,1.27,0,0,0,1.25-1.47Z" transform="translate(-267.05 -285.42)" style="fill:none"/><path d="M453.51,358a1.85,1.85,0,0,0-1.14,1.24,2.51,2.51,0,0,0,1.16,1.82,1.57,1.57,0,0,0,.83.35l5.25,0.6-0.82-3.73-4.63-.4A1.14,1.14,0,0,0,453.51,358Z" transform="translate(-267.05 -285.42)"/><path d="M377.86,359.26v-21.5a4.24,4.24,0,0,0,0-.45l-4.63-43a3,3,0,0,0-3-2.72H326.9a1.77,1.77,0,0,0-1.75,2.09l7.5,41.77a2.91,2.91,0,0,0,2.36,2.36c16.49,2.88,24.65,16.74,27,21.49a2.86,2.86,0,0,0,2.57,1.6h11.64A1.65,1.65,0,0,0,377.86,359.26Z" transform="translate(-267.05 -285.42)" style="fill:none"/><path d="M322.6,293.42a2.16,2.16,0,0,0-2.13-1.81H301.75a1.6,1.6,0,0,0-1.59,1.44L296.05,336a1.44,1.44,0,0,0,1.43,1.57h30.76a1.27,1.27,0,0,0,1.25-1.47Z" transform="translate(-267.05 -285.42)" style="fill:none"/><path d="M424.34,351.62a1.11,1.11,0,1,0-2.11.67l4.48,14a1.11,1.11,0,0,0,2.11-.67Z" transform="translate(-267.05 -285.42)" style="fill:none"/><path d="M431,351.62a1.11,1.11,0,1,0-2.11.67l4.48,14a1.11,1.11,0,0,0,2.11-.67Z" transform="translate(-267.05 -285.42)" style="fill:none"/><path d="M437.67,351.62a1.11,1.11,0,1,0-2.11.67l4.48,14a1.11,1.11,0,0,0,2.11-.67Z" transform="translate(-267.05 -285.42)" style="fill:none"/><path d="M463.22,378.36l-3.33-15.08-5.68-.65a2.81,2.81,0,0,1-1.48-.63,3.65,3.65,0,0,1-1.61-2.9,3,3,0,0,1,1.78-2.21,2.38,2.38,0,0,1,1.35-.27l4.24,0.37-0.39-1.77C456.85,349.49,452,347,445.19,345c-9.69-2.19-19.55-3.93-29.38-5.3V324.47h0.92a2.41,2.41,0,0,0,2.41-2.41v-15.4a2.41,2.41,0,0,0-2.41-2.41h-0.92v-9.14c0-2.21-.26-5.12,2.87-5.26,0.1-1.8.18-1.91,0.44-4.43h0c-5.3.41-7.71,3.47-7.71,7.71v11.13h-0.7a2.41,2.41,0,0,0-2.41,2.41v15.4a2.41,2.41,0,0,0,2.41,2.41h0.7V339.1c-9.63-1.24-19.2-2.14-28.51-2.77l-5.16-45.84a5.7,5.7,0,0,0-5.66-5.06H301.44a5.7,5.7,0,0,0-5.67,5.1l-5,46.8c-3.22.29-5,.49-5,0.49a7.41,7.41,0,0,0-7.93,6.36l-1.38,14.06a0.6,0.6,0,0,0,1,.49A51.45,51.45,0,0,1,363.06,407a1.68,1.68,0,0,0,1.63,2h41.95a2.12,2.12,0,0,0,2.1-1.9,36.29,36.29,0,0,1,53.17-27.81A0.9,0.9,0,0,0,463.22,378.36Zm-135-40.82H297.48a1.44,1.44,0,0,1-1.43-1.57l4.11-42.91a1.6,1.6,0,0,1,1.59-1.44h18.72a2.16,2.16,0,0,1,2.13,1.81l6.9,42.65A1.27,1.27,0,0,1,328.24,337.54Zm36.33,23.38a2.86,2.86,0,0,1-2.57-1.6c-2.34-4.75-10.49-18.62-27-21.49a2.91,2.91,0,0,1-2.36-2.36l-7.5-41.77a1.77,1.77,0,0,1,1.75-2.09h43.28a3,3,0,0,1,3,2.72l4.63,43a4.24,4.24,0,0,1,0,.45v21.5a1.65,1.65,0,0,1-1.65,1.65H364.57ZM403,405.36H368.51V404.3H403v1.06Zm0-1.88H368.51v-1.06H403v1.06ZM428.11,367a1.11,1.11,0,0,1-1.39-.72l-4.48-14a1.11,1.11,0,1,1,2.11-.67l4.48,14A1.11,1.11,0,0,1,428.11,367Zm6.66,0a1.11,1.11,0,0,1-1.39-.72l-4.48-14a1.11,1.11,0,1,1,2.11-.67l4.48,14A1.11,1.11,0,0,1,434.77,367Zm6.66,0a1.11,1.11,0,0,1-1.39-.72l-4.48-14a1.11,1.11,0,1,1,2.11-.67l4.48,14A1.11,1.11,0,0,1,441.44,367Z" transform="translate(-267.05 -285.42)"/><path d="M419.12,285.42h0l0,0.19Z" transform="translate(-267.05 -285.42)"/><path d="M419.16,285.61l0,0.19Z" transform="translate(-267.05 -285.42)"/><path d="M419.27,286.14h0Z" transform="translate(-267.05 -285.42)"/><path d="M419.2,285.8l0.07,0.34Z" transform="translate(-267.05 -285.42)"/><path d="M419.27,286.15l0.06,0.28Z" transform="translate(-267.05 -285.42)"/></svg>