<svg id="Layer_1" data-name="Layer 1" xmlns="http://www.w3.org/2000/svg" viewBox="0 0 122.34 22.56"><title>00010-5</title><path d="M13.87,38.25L5.71,46.11H2.15a0.77,0.77,0,0,0-.77.77v4.51a0.77,0.77,0,0,0,.77.77H5.71L13.87,60a0.78,0.78,0,0,0,1.32-.56V38.81A0.78,0.78,0,0,0,13.87,38.25Z" transform="translate(-1.38 -37.85)"/><polygon points="25.35 7.5 24.06 6.22 20.29 10 16.51 6.22 15.22 7.5 19 11.28 15.22 15.06 16.51 16.34 20.29 12.56 24.06 16.34 25.35 15.06 21.57 11.28 25.35 7.5"/><path d="M43.89,38.25l-8.15,7.86H32.17a0.77,0.77,0,0,0-.77.77v4.51a0.77,0.77,0,0,0,.77.77h3.57L43.89,60a0.78,0.78,0,0,0,1.32-.56V38.81A0.78,0.78,0,0,0,43.89,38.25Z" transform="translate(-1.38 -37.85)"/><path d="M47.77,44.2l-1.39,1.33a5,5,0,0,1-.1,7.07L47.63,54A7,7,0,0,0,47.77,44.2Z" transform="translate(-1.38 -37.85)"/><path d="M51.05,40.9L51,40.82l-1.56,1.51,0.09,0.09a9.45,9.45,0,0,1-.11,13.28l-0.09.09,1.53,1.54,0.09-.09A11.62,11.62,0,0,0,51.05,40.9ZM50.83,57l-1.18-1.19a9.7,9.7,0,0,0,.11-13.46L51,41.17A11.37,11.37,0,0,1,50.83,57Z" transform="translate(-1.38 -37.85)"/><path d="M54.26,37.94l-0.09-.09-1.57,1.5,0.09,0.09a13.81,13.81,0,0,1-.22,19.34l-0.09.09,1.53,1.54L54,60.33A16,16,0,0,0,54.26,37.94ZM53.92,60.06l-1.18-1.18A14.06,14.06,0,0,0,53,39.36l1.21-1.16A15.73,15.73,0,0,1,53.92,60.06Z" transform="translate(-1.38 -37.85)"/><path d="M76.46,38.25l-8.15,7.86H64.74a0.77,0.77,0,0,0-.77.77v4.51a0.77,0.77,0,0,0,.77.77h3.57L76.46,60a0.78,0.78,0,0,0,1.32-.56V38.81A0.78,0.78,0,0,0,76.46,38.25Z" transform="translate(-1.38 -37.85)"/><path d="M80.34,44.2l-1.39,1.33a5,5,0,0,1-.1,7.07L80.2,54A7,7,0,0,0,80.34,44.2Z" transform="translate(-1.38 -37.85)"/><path d="M83.53,41l-1.38,1.34A9.57,9.57,0,0,1,82,55.79l1.36,1.36A11.49,11.49,0,0,0,83.53,41Z" transform="translate(-1.38 -37.85)"/><path d="M86.82,37.94l-0.09-.09-1.57,1.5,0.09,0.09A13.81,13.81,0,0,1,85,58.79L85,58.88l1.53,1.54,0.09-.09A16,16,0,0,0,86.82,37.94ZM86.48,60.06l-1.18-1.18a14.06,14.06,0,0,0,.22-19.51l1.21-1.16A15.73,15.73,0,0,1,86.48,60.06Z" transform="translate(-1.38 -37.85)"/><path d="M109,38.25l-8.15,7.86H97.3a0.77,0.77,0,0,0-.77.77v4.51a0.77,0.77,0,0,0,.77.77h3.57L109,60a0.78,0.78,0,0,0,1.32-.56V38.81A0.78,0.78,0,0,0,109,38.25Z" transform="translate(-1.38 -37.85)"/><path d="M112.9,44.2l-1.39,1.33a5,5,0,0,1-.1,7.07L112.76,54A7,7,0,0,0,112.9,44.2Z" transform="translate(-1.38 -37.85)"/><path d="M116.1,41l-1.38,1.34a9.57,9.57,0,0,1-.11,13.46L116,57.15A11.49,11.49,0,0,0,116.1,41Z" transform="translate(-1.38 -37.85)"/><path d="M119.3,38l-1.39,1.33a13.93,13.93,0,0,1-.22,19.52L119,60.24A15.85,15.85,0,0,0,119.3,38Z" transform="translate(-1.38 -37.85)"/></svg>