<svg id="Layer_1" data-name="Layer 1" xmlns="http://www.w3.org/2000/svg" viewBox="0 0 51.04 55.31"><title>00012-2</title><path d="M46.38,39.44c0.19,2.15,2.17,3.44,2.68,6.56a51.24,51.24,0,0,0,14.15-.26c0.18-2.54.9-3.84,1.16-5.76a0.61,0.61,0,0,0,0-.06c0.1-4.18-.77-2.53-0.23-10.48a0.89,0.89,0,0,0-.89-1H61.46a1,1,0,0,0-1,.46c-1,1.88-4.88,9-4.78,11.54,0.44-3.22-4.34-10.13-5.45-11.69a0.75,0.75,0,0,0-.61-0.31H47.06a0.76,0.76,0,0,0-.75.87C47.12,35,46.16,37,46.38,39.44Z" transform="translate(-30.87 -28.47)" style="fill:#c42129"/><path d="M81.8,77.82c-2.73-3.75-18.33-25.34-18.59-29.44,0-.74-0.05-1.4,0-2a56.08,56.08,0,0,1-14,.37c0,0.24,0,.5,0,0.77,0,3.71-14.3,24.2-18.09,29.56a1.2,1.2,0,0,0,.62,1.85c1.69,0.52,4.74,1.16,8.45,2a0.42,0.42,0,0,0,.48-0.22c2.65-5.51,7.58-16.1,10.36-24-1.56,4.88-6.57,18.36-8.9,24.61a0.41,0.41,0,0,0,.3.55,67.36,67.36,0,0,0,8.6,1.8,0.43,0.43,0,0,0,.47-0.39c0.44-6.55,1-16.44.75-23.28,0.27,4.37.5,15.53,0.62,22.84a0.42,0.42,0,0,0,.4.41c1,0,2,.08,3,0.08,1.66,0,3.3.43,4.89,0.4a0.42,0.42,0,0,0,.4-0.48c-1.06-7-3-20.46-3.48-25.24,1,7.65,3.45,18.31,5,24.59a0.42,0.42,0,0,0,.46.32,77.73,77.73,0,0,0,9.67-1.74,0.42,0.42,0,0,0,.27-0.61c-3.38-6.07-7.46-13.46-9.1-16.75C67,69,71.13,75.4,74.55,80.55a0.43,0.43,0,0,0,.47.17c3.16-.86,5.49-1.69,6.55-2.09A0.53,0.53,0,0,0,81.8,77.82Z" transform="translate(-30.87 -28.47)" style="fill:#c42129"/></svg>