<svg id="Layer_1" data-name="Layer 1" xmlns="http://www.w3.org/2000/svg" viewBox="0 0 87.26 110.29"><title>00019</title><path d="M33.7,53.22A9,9,0,0,0,28.83,69.8a9,9,0,0,1,9.89-13.58V41.63q-1.14-.11-2.32-0.11H36v12A9,9,0,0,0,33.7,53.22Z" transform="translate(0 -7.68)" style="fill:#ed1b53"/><path d="M63.09,21a15.94,15.94,0,0,1-3.27-7.67V10.38h-2.7v0.21A16,16,0,0,0,63.09,21Z" transform="translate(0 -7.68)" style="fill:#ed1b53"/><path d="M70.24,26.14V38.53a30.1,30.1,0,0,1-13.12-4.37V62.23A23.41,23.41,0,0,1,18.55,80.08,23.41,23.41,0,0,0,59.82,64.93V36.86a30.1,30.1,0,0,0,13.12,4.37V26.85A15.91,15.91,0,0,1,70.24,26.14Z" transform="translate(0 -7.68)" style="fill:#ed1b53"/><path d="M70.24,26.14v-2A16,16,0,0,1,63.09,21,16.06,16.06,0,0,0,70.24,26.14Z" transform="translate(0 -7.68)" style="fill:#66c9d0"/><path d="M36,41.52V38.93q-1.14-.11-2.32-0.11A23.41,23.41,0,0,0,18.55,80.08,23.41,23.41,0,0,1,36,41.52Z" transform="translate(0 -7.68)" style="fill:#66c9d0"/><path d="M36.41,73.94a9,9,0,0,0,9-9V10.38H57.12V7.68H42.71V62.23A9,9,0,0,1,28.83,69.8,9,9,0,0,0,36.41,73.94Z" transform="translate(0 -7.68)" style="fill:#66c9d0"/><path d="M57.12,62.23V34.16a30.1,30.1,0,0,0,13.12,4.37V26.14A16.06,16.06,0,0,1,63.09,21a16,16,0,0,1-6-10.37V10.38H45.41V64.93A9,9,0,0,1,28.83,69.8,9,9,0,0,1,36,53.53v-12A23.41,23.41,0,0,0,18.55,80.08,23.41,23.41,0,0,0,57.12,62.23Z" transform="translate(0 -7.68)"/><path d="M4.32,117.48V102.74H0V98.18H13.89l-0.77,4.56H9.57v14.73H4.32Z" transform="translate(0 -7.68)"/><path d="M16,100a2.46,2.46,0,0,1,.76-1.82,2.5,2.5,0,0,1,1.82-.75,2.52,2.52,0,0,1,1.85.74,2.48,2.48,0,0,1,.74,1.83,2.54,2.54,0,0,1-.76,1.86,2.49,2.49,0,0,1-1.84.77,2.46,2.46,0,0,1-1.82-.77A2.54,2.54,0,0,1,16,100Zm0.24,17.46V104.17H21v13.31H16.27Z" transform="translate(0 -7.68)"/><path d="M24.59,117.48V97H29.2V110L34,104.17h5.83l-6,6.4,6.52,6.91H34.23l-5-5.92v5.92H24.59Z" transform="translate(0 -7.68)"/><path d="M45,117.48V102.74H40.66V98.18H54.55l-0.77,4.56H50.23v14.73H45Z" transform="translate(0 -7.68)"/><path d="M63.3,113.2a4,4,0,0,0,0-4.69,2.56,2.56,0,0,0-2-.86h0a2.56,2.56,0,0,0-2,.86,4.07,4.07,0,0,0,0,4.69,2.57,2.57,0,0,0,2,.85h0A2.57,2.57,0,0,0,63.3,113.2Z" transform="translate(0 -7.68)" style="fill:none"/><path d="M61.27,118h0Z" transform="translate(0 -7.68)"/><path d="M61.27,103.74h0Z" transform="translate(0 -7.68)"/><path d="M70.42,108.12a7.51,7.51,0,0,0-2.17-2.33,10.22,10.22,0,0,0-3.17-1.53,13.62,13.62,0,0,0-3.8-.51,7.9,7.9,0,0,1,2.86.51,7.33,7.33,0,0,1,4,3.86,6.88,6.88,0,0,1,.55,2.74,6.79,6.79,0,0,1-.56,2.73,7.16,7.16,0,0,1-1.63,2.32,7.46,7.46,0,0,1-2.42,1.54,7.68,7.68,0,0,1-2.83.51,13.21,13.21,0,0,0,3.76-.51,10.71,10.71,0,0,0,3.21-1.54,7.55,7.55,0,0,0,2.16-2.32,5.38,5.38,0,0,0,.74-2.73A5.45,5.45,0,0,0,70.42,108.12Z" transform="translate(0 -7.68)" style="fill:#ed1b53"/><path d="M56,115.91a6.85,6.85,0,0,1-1.61-2.3,7.11,7.11,0,0,1,3.84-9.29l0.15-.06a8,8,0,0,1,2.88-.51h0a13.72,13.72,0,0,0-3.83.51,10,10,0,0,0-3.16,1.53,7.34,7.34,0,0,0-2.15,2.32,5.54,5.54,0,0,0,0,5.5,7.22,7.22,0,0,0,2.14,2.3,10.25,10.25,0,0,0,3.18,1.54,13.34,13.34,0,0,0,3.81.51h0a7.75,7.75,0,0,1-2.86-.51A7.16,7.16,0,0,1,56,115.91Z" transform="translate(0 -7.68)" style="fill:#66c9d0"/><path d="M61.27,107.66h0Z" transform="translate(0 -7.68)"/><path d="M61.27,114h0Z" transform="translate(0 -7.68)"/><path d="M68.16,108.12a7.33,7.33,0,0,0-4-3.86,7.9,7.9,0,0,0-2.86-.51h0a8,8,0,0,0-2.88.51,7.08,7.08,0,0,0-4.07,9.14l0.08,0.21a6.85,6.85,0,0,0,1.61,2.3,7.16,7.16,0,0,0,2.39,1.54,7.75,7.75,0,0,0,2.86.51h0a7.68,7.68,0,0,0,2.83-.51,7.46,7.46,0,0,0,2.42-1.54,7.16,7.16,0,0,0,1.63-2.32,6.79,6.79,0,0,0,.56-2.73A6.88,6.88,0,0,0,68.16,108.12ZM61.27,114h0a2.57,2.57,0,0,1-2-.85,4.07,4.07,0,0,1,0-4.69,2.56,2.56,0,0,1,2-.86h0a2.56,2.56,0,0,1,2,.86,4,4,0,0,1,0,4.69,2.57,2.57,0,0,1-2,.85h0Z" transform="translate(0 -7.68)"/><path d="M71.44,117.48V97h4.61V110l4.84-5.81h5.83l-6,6.4,6.52,6.91H81.08l-5-5.92v5.92H71.44Z" transform="translate(0 -7.68)"/></svg>