<svg id="Layer_1" data-name="Layer 1" xmlns="http://www.w3.org/2000/svg" viewBox="0 0 87.83 124.95"><title>00014</title><path d="M82.22,110.61c2.12,1,3.34,2.22,3.34,3.47,0,4.13-13.06,7.48-29.18,7.48s-29.18-3.35-29.18-7.48c0-1.25,1.21-2.43,3.34-3.47-3.41,1.3-5.41,2.86-5.41,4.55,0,4.47,14,8.1,31.25,8.1s31.25-3.62,31.25-8.1C87.63,113.47,85.63,111.9,82.22,110.61Z" transform="translate(-20.08 1.7)"/><path d="M36.89,108.34c-2.68,1-4.25,2.25-4.25,3.58,0,3.52,11,6.37,24.58,6.37s24.58-2.85,24.58-6.37c0-1.33-1.57-2.56-4.25-3.58,1.67,0.82,2.62,1.74,2.62,2.73,0,3.25-10.27,5.89-22.95,5.89s-22.95-2.64-22.95-5.89C34.27,110.08,35.23,109.15,36.89,108.34Z" transform="translate(-20.08 1.7)"/><path d="M48.84,51.85c9.5,1.23,19.33,2.26,27.11,7.28s-3.51,12.74-3.51,12.74c18.33-5.21,13.25-11.11,12.3-12.74C74.19,48.53,48.84,51.85,48.84,51.85Z" transform="translate(-20.08 1.7)"/><path d="M43.19,53.29C24.86,58.5,29.94,64.4,30.89,66c10.54,10.61,35.9,7.28,35.9,7.28-9.5-1.23-19.33-2.26-27.11-7.28S43.19,53.29,43.19,53.29Z" transform="translate(-20.08 1.7)"/><path d="M47.73,39.75s2.59-14.43,6.41-18.54c3.51-3.78,2.5-17.59-4.27-22.91,0,0,6.76,12,1.29,21.5C49.21,23.21,47.61,29.87,47.73,39.75Z" transform="translate(-20.08 1.7)"/><path d="M62.59,44.31s3.85-8,6.94-9.78c2.83-1.61,4.28-9.91.72-14.23,0,0,2.53,8.26-2.42,12.88C66,34.83,64,38.47,62.59,44.31Z" transform="translate(-20.08 1.7)"/><path d="M92.67,63.55V61.95c0-11.27-19.67-16.39-38.54-15.81C55.49,43,60.89,30.84,64.86,26.81,69.06,22.54,66.38,8,57,3c0,0,10,12.15,3.8,22.59C58.67,29.22,53,36.14,53.76,46.15c-17.23.6-33.67,6-33.67,15.8V76.08a36.29,36.29,0,0,0,36.29,36.29h0A36.24,36.24,0,0,0,86.12,96.86l0,0C88.21,96.37,97,93.35,100,91s7.34-5,7.91-19.09S92.67,63.55,92.67,63.55ZM27.25,93.28S21.75,82,23,71.94a9.38,9.38,0,0,1,2,0c-0.48,3.7.69,12.43,3.6,20.71ZM56.38,76.05C37.94,76.05,23,70,23,62.57S37.94,49.09,56.38,49.09s33.38,6,33.38,13.48S74.81,76.05,56.38,76.05ZM98,87.33a12,12,0,0,1-8.23,3v0a36.17,36.17,0,0,0,2.92-14.28v-8s10-5.23,10.9,3.81C104,76.55,101.68,83.81,98,87.33Z" transform="translate(-20.08 1.7)"/></svg>