<svg id="Layer_1" data-name="Layer 1" xmlns="http://www.w3.org/2000/svg" viewBox="0 0 58.41 56.91"><title>00012-1</title><path d="M56.7,46.92H71.26c0.58-2.84,2.7-4.3,2.58-7.58,0.08-2.72-1.71-3.48-2.06-12.74a0.31,0.31,0,0,0-.3-0.3H69.6a0.3,0.3,0,0,0-.3.27c-0.75,6.19-3.89,9-4.84,10.82,0-2.19-3.24-4.26-4.09-10.82a0.31,0.31,0,0,0-.3-0.27H58a0.31,0.31,0,0,0-.3.26c-1.2,7.84-3.32,10.55-3.34,12.73C54.55,43.93,57,43.87,56.7,46.92Z" transform="translate(-34.05 -26.29)" style="fill:#d21c59"/><path d="M92.33,76.74c-2.93-3.2-19.9-22-21.11-28.26a0.48,0.48,0,0,0-.46-0.4H56.89a0.47,0.47,0,0,0-.45.35C54.61,54.65,37.29,73.37,34.18,76.7a0.46,0.46,0,0,0,.17.76c1.31,0.48,4.5,1.6,8.82,2.73a1.13,1.13,0,0,0,1.17-.38A98.59,98.59,0,0,0,55.55,62.09C54,65.3,54.38,66.06,46,80.23a0.47,0.47,0,0,0,.29.7c2.51,0.58,5.29,1.11,8.22,1.52a1,1,0,0,0,1.12-.72A102.13,102.13,0,0,0,58.8,66.47a98.09,98.09,0,0,1-2.2,15.34,0.83,0.83,0,0,0,.72,1,71.5,71.5,0,0,0,7.41.4c1.41,0,2.8,0,4.15-.13a1.14,1.14,0,0,0,1-1.52C64.71,67.09,65.19,66.37,64.3,63a99.36,99.36,0,0,0,7.24,18.8,1.6,1.6,0,0,0,1.63.85,72.12,72.12,0,0,0,7.58-1.39,0.47,0.47,0,0,0,.28-0.7,96.77,96.77,0,0,1-6.82-13.42,101.88,101.88,0,0,0,8,13.44,0.47,0.47,0,0,0,.51.18,64.25,64.25,0,0,0,9.46-3.29A0.46,0.46,0,0,0,92.33,76.74Z" transform="translate(-34.05 -26.29)" style="fill:#d21c59"/></svg>