<svg id="Layer_1" data-name="Layer 1" xmlns="http://www.w3.org/2000/svg" viewBox="0 0 27.31 22.56"><title>00010-3</title><path d="M76.46,38.25l-8.15,7.86H64.74a0.77,0.77,0,0,0-.77.77v4.51a0.77,0.77,0,0,0,.77.77h3.57L76.46,60a0.78,0.78,0,0,0,1.32-.56V38.81A0.78,0.78,0,0,0,76.46,38.25Z" transform="translate(-63.97 -37.85)"/><path d="M80.34,44.2l-1.39,1.33a5,5,0,0,1-.1,7.07L80.2,54A7,7,0,0,0,80.34,44.2Z" transform="translate(-63.97 -37.85)"/><path d="M83.53,41l-1.38,1.34A9.57,9.57,0,0,1,82,55.79l1.36,1.36A11.49,11.49,0,0,0,83.53,41Z" transform="translate(-63.97 -37.85)"/><path d="M86.82,37.94l-0.09-.09-1.57,1.5,0.09,0.09A13.81,13.81,0,0,1,85,58.79L85,58.88l1.53,1.54,0.09-.09A16,16,0,0,0,86.82,37.94ZM86.48,60.06l-1.18-1.18a14.06,14.06,0,0,0,.22-19.51l1.21-1.16A15.73,15.73,0,0,1,86.48,60.06Z" transform="translate(-63.97 -37.85)"/></svg>