<svg id="Layer_1" data-name="Layer 1" xmlns="http://www.w3.org/2000/svg" viewBox="0 0 113.35 122.2"><title>00017</title><path d="M-402.36,68.73l-57.86,21.06a24.94,24.94,0,0,0-14.86,31.87h0a24.91,24.91,0,0,0,19,15.95l-9.9,3.6a24.94,24.94,0,0,0-14.86,31.87h0A24.94,24.94,0,0,0-449,187.94l57.86-21.06A24.94,24.94,0,0,0-376.26,135h0a24.91,24.91,0,0,0-19-15.95l9.9-3.6a24.94,24.94,0,0,0,14.86-31.87h0A24.94,24.94,0,0,0-402.36,68.73Z" transform="translate(482.35 -67.24)" style="fill:#ed1c24"/><polygon points="78.48 61.1 40.42 83.08 40.42 39.13 78.48 61.1" style="fill:#fff"/></svg>