<svg id="Layer_1" data-name="Layer 1" xmlns="http://www.w3.org/2000/svg" viewBox="0 0 27.31 22.56"><title>00010-2</title><path d="M43.89,38.25l-8.15,7.86H32.17a0.77,0.77,0,0,0-.77.77v4.51a0.77,0.77,0,0,0,.77.77h3.57L43.89,60a0.78,0.78,0,0,0,1.32-.56V38.81A0.78,0.78,0,0,0,43.89,38.25Z" transform="translate(-31.4 -37.85)"/><path d="M47.77,44.2l-1.39,1.33a5,5,0,0,1-.1,7.07L47.63,54A7,7,0,0,0,47.77,44.2Z" transform="translate(-31.4 -37.85)"/><path d="M51.05,40.9L51,40.82l-1.56,1.51,0.09,0.09a9.45,9.45,0,0,1-.11,13.28l-0.09.09,1.53,1.54,0.09-.09A11.62,11.62,0,0,0,51.05,40.9ZM50.83,57l-1.18-1.19a9.7,9.7,0,0,0,.11-13.46L51,41.17A11.37,11.37,0,0,1,50.83,57Z" transform="translate(-31.4 -37.85)"/><path d="M54.26,37.94l-0.09-.09-1.57,1.5,0.09,0.09a13.81,13.81,0,0,1-.22,19.34l-0.09.09,1.53,1.54L54,60.33A16,16,0,0,0,54.26,37.94ZM53.92,60.06l-1.18-1.18A14.06,14.06,0,0,0,53,39.36l1.21-1.16A15.73,15.73,0,0,1,53.92,60.06Z" transform="translate(-31.4 -37.85)"/></svg>