<svg id="Layer_1" data-name="Layer 1" xmlns="http://www.w3.org/2000/svg" viewBox="0 0 82.3 57.79"><title>00013</title><path d="M74.77,41.43c0,1.18,0,3.14-.41,3.14H42.7a0.5,0.5,0,0,0-.4.63L42.23,50.8a1,1,0,0,0,.89.89H80.37A1,1,0,0,0,81,51.43l6.19-6A1.13,1.13,0,0,1,88,45.13h4.61a0.4,0.4,0,0,0,.4-0.42l-0.08-2a2.2,2.2,0,0,0-2.19-2.11H75.63A0.86,0.86,0,0,0,74.77,41.43Z" transform="translate(-28.29 -13.91)"/><path d="M58.75,23.17V33.25H56.19a1.48,1.48,0,0,0-1.48,1.48v6.65A1.33,1.33,0,0,0,56,42.71H71.85a0.66,0.66,0,0,0,.67-0.62c0.11-2.26.94-3.87,4.26-4.08a0.88,0.88,0,0,0,.81-0.88V34.42a1.17,1.17,0,0,0-1.17-1.17H60.21V14.82a0.73,0.73,0,0,0-1.46,0V14.67c-3.77-2.6-11.77,2.52-17.31,0v8.5C48.6,25.56,53.6,20.44,58.75,23.17Z" transform="translate(-28.29 -13.91)"/><path d="M110.17,47.57H88.84a2.62,2.62,0,0,0-1.88.79l-4.34,4.46a2.46,2.46,0,0,1-1.76.74H28.81a0.52,0.52,0,0,0-.5.63L32,70.8a1.13,1.13,0,0,0,1.11.89H92.59a2.68,2.68,0,0,0,2.19-1.14l15.73-22.33A0.42,0.42,0,0,0,110.17,47.57ZM47.24,66a3.58,3.58,0,1,1,3.58-3.58A3.58,3.58,0,0,1,47.24,66Zm12.25,0a3.58,3.58,0,1,1,3.58-3.58A3.58,3.58,0,0,1,59.49,66Zm12.25,0a3.58,3.58,0,1,1,3.58-3.58A3.58,3.58,0,0,1,71.74,66Z" transform="translate(-28.29 -13.91)"/></svg>