<svg id="Layer_1" data-name="Layer 1" xmlns="http://www.w3.org/2000/svg" viewBox="0 0 87.35 87.35"><title>00019-App</title><rect width="87.35" height="87.35" rx="21.21" ry="21.21"/><path d="M67.43,50.29V59A23.24,23.24,0,0,1,56,55.42V79A18.63,18.63,0,0,1,22.88,90.71a18.63,18.63,0,0,0,34.91-9.08V58a23.24,23.24,0,0,0,11.4,3.54v-11A12.38,12.38,0,0,1,67.43,50.29Z" transform="translate(0 -24.98)" style="fill:#ec2154"/><path d="M37.39,71.36A7.67,7.67,0,0,0,32,84.53a7.67,7.67,0,0,1,9.3-10.25V63.13C40.77,63.06,40.17,63,39.59,63v8.68A7.67,7.67,0,0,0,37.39,71.36Z" transform="translate(0 -24.98)" style="fill:#ec2154"/><path d="M57.8,38.22H56.32a12.34,12.34,0,0,0,2.8,5.56A12.33,12.33,0,0,1,57.8,38.22Z" transform="translate(0 -24.98)" style="fill:#ec2154"/><path d="M67.43,50.29V48a12.36,12.36,0,0,1-8.31-4.18A12.41,12.41,0,0,0,67.43,50.29Z" transform="translate(0 -24.98)" style="fill:#68c9d0"/><path d="M39.15,89.3a7.67,7.67,0,0,0,7.67-7.67V38.22h9.5a12.43,12.43,0,0,1-.28-2.6h-11V79a7.67,7.67,0,0,1-13,5.5A7.67,7.67,0,0,0,39.15,89.3Z" transform="translate(0 -24.98)" style="fill:#68c9d0"/><path d="M39.15,63h0.44V60.53A18.63,18.63,0,0,0,22.88,90.71,18.63,18.63,0,0,1,39.15,63Z" transform="translate(0 -24.98)" style="fill:#68c9d0"/><path d="M37.39,97.67A18.64,18.64,0,0,0,56,79h0V55.42A23.24,23.24,0,0,0,67.43,59V50.29a12.41,12.41,0,0,1-8.31-6.51,12.34,12.34,0,0,1-2.8-5.56h-9.5V81.63A7.67,7.67,0,0,1,32,84.53a7.67,7.67,0,0,1,7.54-12.85V63H39.15A18.63,18.63,0,0,0,22.88,90.72,18.6,18.6,0,0,0,37.39,97.67Z" transform="translate(0 -24.98)" style="fill:#fff"/></svg>