<svg id="Layer_1" data-name="Layer 1" xmlns="http://www.w3.org/2000/svg" viewBox="0 0 24 24"><title>00026</title><rect x="6" y="6" width="12" height="12" style="fill:none"/><path d="M23.42,23.58h-12v6H22.21a2.91,2.91,0,0,0,1.21-.27V23.58Z" transform="translate(-5.42 -5.58)" style="fill:#36a852"/><path d="M5.42,23.58v3.08a2.92,2.92,0,0,0,2.92,2.92h3.08v-6h-6Z" transform="translate(-5.42 -5.58)" style="fill:#1c8140"/><path d="M23.42,23.58h5.73a2.91,2.91,0,0,0,.27-1.21V11.58h-6v12Z" transform="translate(-5.42 -5.58)" style="fill:#f9bc15"/><path d="M23.42,23.58v5.73a2.91,2.91,0,0,0,.85-0.58l4.29-4.29a2.91,2.91,0,0,0,.58-0.85H23.42Z" transform="translate(-5.42 -5.58)" style="fill:#ea4535"/><path d="M11.42,11.58h12v-6H8.33A2.92,2.92,0,0,0,5.42,8.5V23.58h6v-12Z" transform="translate(-5.42 -5.58)" style="fill:#557ebf"/><path d="M26.5,5.58H23.42v6h6V8.5A2.92,2.92,0,0,0,26.5,5.58Z" transform="translate(-5.42 -5.58)" style="fill:#3868b2"/><path d="M13,19.13h1.6a2.93,2.93,0,0,0,.16,1,0.47,0.47,0,0,0,.45.31,0.5,0.5,0,0,0,.47-0.28,1.74,1.74,0,0,0,.16-0.83,1.08,1.08,0,0,0-.28-0.84,1.38,1.38,0,0,0-.93-0.25H14.32V17.09h0.16a1.35,1.35,0,0,0,.91-0.25A1,1,0,0,0,15.67,16a1.08,1.08,0,0,0-.13-0.58,0.42,0.42,0,0,0-.37-0.2,0.44,0.44,0,0,0-.43.24,2.2,2.2,0,0,0-.15.87H13v-0.1a2.33,2.33,0,0,1,.6-1.7A2.19,2.19,0,0,1,15.26,14a2.2,2.2,0,0,1,1.54.55,1.94,1.94,0,0,1,.33,2.39,2.18,2.18,0,0,1-.82.72,2,2,0,0,1,1,.71,2,2,0,0,1,.31,1.15,2.16,2.16,0,0,1-2.36,2.36,2.18,2.18,0,0,1-1.69-.65,2.58,2.58,0,0,1-.6-1.82s0-.06,0-0.11S13,19.16,13,19.13Z" transform="translate(-5.42 -5.58)" style="fill:#557ebf"/><path d="M20.18,21.67V16.38H18.65V15.21h0.08a2.43,2.43,0,0,0,1.32-.31A1.52,1.52,0,0,0,20.71,14h1.18v7.72H20.18Z" transform="translate(-5.42 -5.58)" style="fill:#557ebf"/></svg>