<svg id="Layer_1" data-name="Layer 1" xmlns="http://www.w3.org/2000/svg" viewBox="0 0 28.96 22.92"><title>00025</title><path d="M33.68,12.82l-4.84,3.32v8.46l4.84,3.32a0.77,0.77,0,0,0,1.2-.63V13.46A0.77,0.77,0,0,0,33.68,12.82Z" transform="translate(-5.92 -8.92)" style="fill:#0dac4b"/><polygon points="5.47 0.69 3.08 3.08 5.47 0.69 5.47 0.69" style="fill:none"/><polygon points="16.75 16.75 16.75 11.46 16.75 6.17 6.17 6.17 6.17 16.75 16.75 16.75" style="fill:none"/><path d="M12.08,15.08H6.14a2.36,2.36,0,0,0-.22,1v9.6h6.17V15.08Z" transform="translate(-5.92 -8.92)" style="fill:#4b7bbe"/><path d="M5.92,25.67v3.8a2.36,2.36,0,0,0,2.36,2.36h3.8V25.67H5.92Z" transform="translate(-5.92 -8.92)" style="fill:#3768b2"/><path d="M22.67,25.67H12.08v6.17H26.47a2.36,2.36,0,0,0,2.36-2.36V24.61l-6.17-4.23v5.29Z" transform="translate(-5.92 -8.92)" style="fill:#0dac4b"/><path d="M6.14,15.08h5.95V9.14a2.36,2.36,0,0,0-.69.47L9,12,6.61,14.39A2.36,2.36,0,0,0,6.14,15.08Z" transform="translate(-5.92 -8.92)" style="fill:#e94336"/><path d="M26.47,8.92H13.06a2.36,2.36,0,0,0-1,.22v5.95H22.67v5.29l6.17-4.23V11.28A2.36,2.36,0,0,0,26.47,8.92Z" transform="translate(-5.92 -8.92)" style="fill:#fdba12"/><polygon points="22.92 15.69 22.92 7.23 16.75 11.46 22.92 15.69" style="fill:#0d8441"/></svg>