<svg id="Layer_1" data-name="Layer 1" xmlns="http://www.w3.org/2000/svg" viewBox="0 0 43.88 31.4"><title>00023</title><path d="M0,33.24a4.39,4.39,0,0,0,4.39,4.39H11V22.51L0,14.59V33.24Z" transform="translate(0 -6.22)" style="fill:#557ebf"/><path d="M32.91,22.51V37.62h6.58a4.39,4.39,0,0,0,4.39-4.39V14.59Z" transform="translate(0 -6.22)" style="fill:#36a852"/><polygon points="21.94 12.02 10.97 4.05 10.97 16.29 21.94 24.26 32.91 16.29 32.91 4.05 21.94 12.02" style="fill:#ea4535"/><path d="M6.52,7A4.08,4.08,0,0,0,0,10.12v4.46l11,8V10.27Z" transform="translate(0 -6.22)" style="fill:#c52627"/><path d="M43.88,10.2V10.12A4.08,4.08,0,0,0,37.36,7l-4.45,3.24V22.51l11-7.92V10.2Z" transform="translate(0 -6.22)" style="fill:#f9bc15"/></svg>