<svg id="Layer_1" data-name="Layer 1" xmlns="http://www.w3.org/2000/svg" viewBox="0 0 43.88 43.89"><title>00022</title><path d="M42.21,11.39A21.95,21.95,0,0,0,7,12.48l2.64,4.27,7.32,11.81a8.8,8.8,0,0,1,6.49-12.23h0A8.56,8.56,0,0,1,26,16.24h0l13.83-.43,5-.15A21.5,21.5,0,0,0,42.21,11.39Z" transform="translate(-3.06 -3.06)" style="fill:#ea4535"/><path d="M20,32.23a8.73,8.73,0,0,1-1.76-1.61,8.56,8.56,0,0,1-1.27-2h0L9.63,16.75,7,12.48A21.57,21.57,0,0,0,4.61,16.9a21.93,21.93,0,0,0,18.55,30l2.38-4.42,6.57-12.23A8.81,8.81,0,0,1,20,32.23Z" transform="translate(-3.06 -3.06)" style="fill:#1c8140"/><path d="M44.85,15.66l-5,.15L26,16.25A8.81,8.81,0,0,1,33.27,28v0a9,9,0,0,1-1,2l-0.13.18L25.54,42.44l-2.38,4.42a21.49,21.49,0,0,0,5-.15A21.94,21.94,0,0,0,44.85,15.66Z" transform="translate(-3.06 -3.06)" style="fill:#f9bc15"/><circle cx="25" cy="25" r="8.81" transform="translate(-12.86 28.2) rotate(-55.19)" style="fill:#557ebf"/><path d="M33.06,30.6A9.81,9.81,0,1,1,30.6,16.94,9.82,9.82,0,0,1,33.06,30.6ZM18.58,20.54a7.81,7.81,0,1,0,10.88-2A7.82,7.82,0,0,0,18.58,20.54Z" transform="translate(-3.06 -3.06)" style="fill:#fff"/></svg>