<svg id="Layer_1" data-name="Layer 1" xmlns="http://www.w3.org/2000/svg" viewBox="0 0 43.75 38.85"><title>00025</title><polygon points="18.47 17.96 18.34 18.18 18.47 17.96 18.47 17.96" style="fill:#00ac47"/><polygon points="5.27 36.91 5.27 36.91 3.75 34.33 5.27 36.91" style="fill:none"/><polygon points="0.54 24.95 0.54 24.95 8.69 10.81 0.54 24.95" style="fill:none"/><polygon points="43.22 24.95 37.12 14.4 43.22 24.95 43.22 24.95" style="fill:none"/><polygon points="40.22 33.98 38.49 36.91 38.49 36.91 40.22 33.98" style="fill:none"/><path d="M6.84,41.11l6.58-11.39H0.13a3.93,3.93,0,0,0,.54,2l3.19,5.43,1.52,2.58A3.93,3.93,0,0,0,6.84,41.11Z" transform="translate(-0.13 -2.78)" style="fill:#0066da"/><path d="M30.59,29.72H13.42L6.84,41.11a3.93,3.93,0,0,0,1.95.52H35.23a3.93,3.93,0,0,0,1.95-.52Z" transform="translate(-0.13 -2.78)" style="fill:#2684fc"/><path d="M43.34,31.69a3.93,3.93,0,0,0,.54-2H30.59l6.58,11.39a3.93,3.93,0,0,0,1.44-1.42l1.73-2.94Z" transform="translate(-0.13 -2.78)" style="fill:#ea4335"/><path d="M28.66,3.33L22,14.86,30.6,29.74H43.88a3.93,3.93,0,0,0-.53-2l-6.1-10.56L30.09,4.77A3.93,3.93,0,0,0,28.66,3.33Z" transform="translate(-0.13 -2.78)" style="fill:#ffba00"/><path d="M22,14.84L28.66,3.31a3.93,3.93,0,0,0-2-.53H17.32a3.93,3.93,0,0,0-2,.53Z" transform="translate(-0.13 -2.78)" style="fill:#00832d"/><path d="M15.36,3.33a3.93,3.93,0,0,0-1.44,1.44L8.83,13.58,0.69,27.72a3.93,3.93,0,0,0-.53,2H13.42l5-8.74,0.13-.23L22,14.84Z" transform="translate(-0.13 -2.78)" style="fill:#00ac47"/></svg>