<svg id="Layer_1" data-name="Layer 1" xmlns="http://www.w3.org/2000/svg" viewBox="0 0 26.16 29.11"><title>00027</title><path d="M32,18.15a3.58,3.58,0,0,1,0,6.2l-4.38,2.53-6-5.88,5.83-5.5Z" transform="translate(-7.67 -6.7)" style="fill:#f9bc15"/><path d="M21.62,21l6,5.88L13,35.32A3.59,3.59,0,0,1,8,33.8Z" transform="translate(-7.67 -6.7)" style="fill:#ea4535"/><path d="M27.45,15.5L21.62,21,8.39,8.13a3.57,3.57,0,0,1,4.65-1Z" transform="translate(-7.67 -6.7)" style="fill:#36a852"/><path d="M8.39,8.13L21.62,21,8,33.8a3.56,3.56,0,0,1-.36-1.58V10.28A3.48,3.48,0,0,1,8.39,8.13Z" transform="translate(-7.67 -6.7)" style="fill:#557ebf"/></svg>