<svg id="Layer_1" data-name="Layer 1" xmlns="http://www.w3.org/2000/svg" viewBox="0 0 22.71 18.42"><title>00024</title><path d="M23.49,22H8.82a2.12,2.12,0,0,0,0,4.25H23.49A2.13,2.13,0,0,0,23.49,22ZM8.82,25.23a1.06,1.06,0,1,1,1.06-1.06A1.06,1.06,0,0,1,8.82,25.23Zm14.67,0a1.06,1.06,0,1,1,1.06-1.06A1.06,1.06,0,0,1,23.49,25.23Z" transform="translate(-6.69 -7.88)" style="fill:#ea4535"/><path d="M24.7,22.43L12.69,14a2.12,2.12,0,1,0-2.44,3.48l12,8.41A2.12,2.12,0,1,0,24.7,22.43ZM10.87,16.62a1.06,1.06,0,1,1,1.47-.26A1.06,1.06,0,0,1,10.87,16.62Zm12,8.41a1.06,1.06,0,1,1,1.47-.26A1.06,1.06,0,0,1,22.88,25Z" transform="translate(-6.69 -7.88)" style="fill:#f9bc15"/><path d="M25.48,23.44l-5-13.78a2.13,2.13,0,0,0-4,1.45l5,13.78A2.13,2.13,0,1,0,25.48,23.44Zm-8-12.69a1.06,1.06,0,1,1,1.36.63A1.06,1.06,0,0,1,17.48,10.75Zm5,13.78a1.06,1.06,0,1,1,1.36.63A1.06,1.06,0,0,1,22.49,24.53Z" transform="translate(-6.69 -7.88)" style="fill:#36a852"/><path d="M25.54,24.72l3.8-14.17a2.12,2.12,0,1,0-4.11-1.1l-3.8,14.17A2.13,2.13,0,1,0,25.54,24.72Zm0.72-15A1.06,1.06,0,1,1,27,11,1.06,1.06,0,0,1,26.26,9.73ZM22.46,23.9a1.06,1.06,0,1,1,.75,1.29A1.06,1.06,0,0,1,22.46,23.9Z" transform="translate(-6.69 -7.88)" style="fill:#557ebf"/></svg>