<?xml version="1.0" encoding="utf-8"?>
<!-- Generator: Adobe Illustrator 19.2.1, SVG Export Plug-In . SVG Version: 6.00 Build 0)  -->
<svg version="1.1" id="Layer_1" xmlns="http://www.w3.org/2000/svg" xmlns:xlink="http://www.w3.org/1999/xlink" x="0px" y="0px"
	 viewBox="0 0 87.8 73.5" style="enable-background:new 0 0 87.8 73.5;" xml:space="preserve">
<title>00020</title>
<g>
	<polygon points="29.3,51.6 20.7,33.9 6.6,41.6 11.5,51.6 	"/>
	<polygon points="51.3,0 37.3,7.6 58.9,51.6 76.7,51.6 	"/>
	<path d="M10.8,57.1v1.7c-0.9-1.4-2.4-2.2-4.1-2.1c-3.7,0-6.8,3.3-6.7,8.4c0.1,4.5,2.8,8.4,7.1,8.4c1.7,0.1,3.2-0.8,4-2.3v1.7h4.1
		l-0.4-15.8L10.8,57.1z M7.7,69.1L7.7,69.1c-2.5,0-3.5-2.4-3.5-4c0-1.8,0.9-4.1,3.3-4.1c2.4,0,3.5,2.1,3.6,4
		C11,66.5,10.2,69.1,7.7,69.1z"/>
	<path d="M28,51.7l0.2,6.6c-1-1.2-2.5-1.9-4.1-1.8c-3.5,0-6.8,3.1-6.6,8.5c0.1,4.8,2.9,8.4,7.1,8.4c1.7,0.1,3.3-0.7,4.1-2.3v1.7h3.9
		l-0.4-21.1H28z M25.2,68.9L25.2,68.9c-1.9,0-3.5-1.6-3.5-4c0-1.8,1-4,3.4-4c2.4,0,3.5,2,3.6,3.9C28.6,66.4,27.8,68.9,25.2,68.9z"/>
	<polygon points="35.3,56.9 35.7,72.7 39.8,72.7 39.4,56.8 	"/>
	<path d="M52.9,51.5L36,17l-14.1,7.6l13.3,27.1h-0.1l0.1,3.6h4.1l-0.1-3.6h13.2l0.2,6.4c-1-1.2-2.5-1.9-4.1-1.8
		c-3.5,0-6.8,3.1-6.6,8.5c0.1,4.8,2.9,8.4,7.1,8.4c1.7,0.1,3.3-0.7,4.1-2.3v1.7H57l-0.4-21.1L52.9,51.5z M49.6,68.7
		c-1.9,0-3.5-1.6-3.5-4c0-1.8,1-4,3.4-4c2.4,0,3.5,2,3.5,3.9C53.1,66.2,52.2,68.7,49.6,68.7z"/>
	<path d="M70.1,56.6v1.7c-0.8-1.4-2.4-2.3-4.1-2.2c-3.7,0-6.8,3.3-6.7,8.5c0.1,4.5,2.8,8.4,7.1,8.4c1.7,0.1,3.2-0.8,4-2.3v1.7h4.1
		l-0.4-15.8L70.1,56.6z M66.9,68.5L66.9,68.5c-2.5,0-3.5-2.4-3.5-4c0-1.8,0.9-4.1,3.3-4.1c2.4,0,3.5,2.1,3.6,4
		C70.3,66,69.5,68.5,66.9,68.5z"/>
	<path d="M82.9,62.5c-1.1-0.4-2.1-0.8-2.2-1.7c-0.1-0.5,0.3-1,0.9-1.1c0.1,0,0.2,0,0.2,0c0.6-0.1,1.2,0.3,1.3,0.9c0,0.1,0,0.2,0,0.2
		h4c-0.2-2.9-2.7-5.2-5.6-5c-2.8,0.2-5,2.5-5,5.3c0.1,2,1.5,3.6,3.5,4.1c2.7,1.1,3.7,1.3,3.7,2.5c0,0.7-0.7,1.3-1.4,1.2c0,0,0,0,0,0
		c-0.8,0-1.6-0.6-1.6-1.4h-4.1c0.2,3,2.7,5.3,5.7,5.2c2.9,0.1,5.3-2.1,5.5-5c0-0.1,0-0.3,0-0.4C87.7,63.9,85.2,63.2,82.9,62.5z"/>
</g>
</svg>
