<svg id="Layer_1" data-name="Layer 1" xmlns="http://www.w3.org/2000/svg" xmlns:xlink="http://www.w3.org/1999/xlink" viewBox="0 0 87.5 87.5"><defs><linearGradient id="linear-gradient" x1="6.71" y1="79.48" x2="62.37" y2="25.35" gradientUnits="userSpaceOnUse"><stop offset="0" stop-color="#f6921e"/><stop offset="0.5" stop-color="#be1e2d"/><stop offset="1" stop-color="#2e3191"/></linearGradient><linearGradient id="linear-gradient-2" x1="6.71" y1="79.48" x2="62.37" y2="25.35" xlink:href="#linear-gradient"/><linearGradient id="linear-gradient-3" x1="6.66" y1="79.44" x2="62.32" y2="25.31" xlink:href="#linear-gradient"/></defs><title>00021</title><path d="M43.69,33A10.51,10.51,0,1,0,54.2,43.51,10.52,10.52,0,0,0,43.69,33Z" transform="translate(0.15 0.24)" style="fill:url(#linear-gradient)"/><path d="M59.45,17.22H27.93A10.54,10.54,0,0,0,17.4,27.75V59.27A10.54,10.54,0,0,0,27.93,69.8H59.45A10.54,10.54,0,0,0,70,59.27V27.75A10.54,10.54,0,0,0,59.45,17.22ZM43.69,57.62a14.1,14.1,0,1,1,14.1-14.1A14.12,14.12,0,0,1,43.69,57.62ZM62.43,27.5a2.68,2.68,0,1,1,2.68-2.68A2.68,2.68,0,0,1,62.43,27.5Z" transform="translate(0.15 0.24)" style="fill:url(#linear-gradient-2)"/><path d="M64.67-.24H22.53A22.68,22.68,0,0,0-.15,22.44V64.58A22.68,22.68,0,0,0,22.53,87.26H64.67A22.68,22.68,0,0,0,87.35,64.58V22.44A22.68,22.68,0,0,0,64.67-.24Zm8.9,59.51A14.14,14.14,0,0,1,59.45,73.4H27.93A14.14,14.14,0,0,1,13.81,59.27V27.75A14.14,14.14,0,0,1,27.93,13.63H59.45A14.14,14.14,0,0,1,73.58,27.75V59.27Z" transform="translate(0.15 0.24)" style="fill:url(#linear-gradient-3)"/></svg>