<svg id="Layer_1" data-name="Layer 1" xmlns="http://www.w3.org/2000/svg" viewBox="0 0 186.32 122.44"><title>00033</title><path d="M213.79,159a36.18,36.18,0,0,0-47.2-32.35L151.75,89.48c7.86,1.56,19.54-1.23,24.07-12.82l-4.66-1.82c-4.05,10.36-14.91,10.84-19.61,9.45a4.2,4.2,0,0,0-3.73.61,4.1,4.1,0,0,0-1.36,4.83l3.45,8.63L90.71,102.8,84.55,89.32c3.17-.52,6.87-1.3,8.27-2.26a2.8,2.8,0,0,0,0-4.44c-2.66-1.81-13.88-2.22-13.88-2.22s-10-.61-10,4.44S79.34,90,79.34,90h0l7,15.39-10,21.79a36.19,36.19,0,1,0,23.36,36.37h8.45a6.8,6.8,0,1,0,11.85-6.47L153,106l9,22.45A36.19,36.19,0,1,0,213.79,159ZM63.72,191.28A30.19,30.19,0,1,1,74,132.68l-9.88,21.61-0.35,0a6.81,6.81,0,0,0-6.81,6.91,6.9,6.9,0,0,0,6.72,6.71,6.81,6.81,0,0,0,6.41-4.31H93.8A30.23,30.23,0,0,1,63.72,191.28Zm6.33-32.69a6.81,6.81,0,0,0-1.42-2.22l9.87-21.6A30.23,30.23,0,0,1,93.8,158.58H70.05Zm38.22,0H99.82A36.24,36.24,0,0,0,81,129.29l8.16-17.85,20.53,44.93A6.8,6.8,0,0,0,108.27,158.58Zm7.65-4.18a6.83,6.83,0,0,0-1.32-.13l-0.35,0L92.93,107.65l55.76-4.18Zm59.22,36.77a30.18,30.18,0,0,1-11-57.09l10.24,25.64a2.47,2.47,0,0,0,3.21,1.38A2.53,2.53,0,0,0,179,157.8l-10.22-25.59A30.19,30.19,0,1,1,175.14,191.17Z" transform="translate(-27.53 -74.84)"/></svg>