<svg id="Layer_1" data-name="Layer 1" xmlns="http://www.w3.org/2000/svg" viewBox="0 0 129.33 146"><title>00034</title><rect x="56.67" y="78" width="16" height="68" rx="4.5" ry="4.5"/><path d="M155,71H140.61a17.24,17.24,0,0,1-30.55,0H95.67a8,8,0,0,0-8,8v89.33a8,8,0,0,0,8,8H114V125.75a2.08,2.08,0,0,1,2.08-2.08h18.5a2.08,2.08,0,0,1,2.08,2.08v50.58H155a8,8,0,0,0,8-8V79A8,8,0,0,0,155,71Z" transform="translate(-60.67 -48.5)"/><path d="M188.08,60.42H139.59a14.49,14.49,0,0,0-28.51,0H62.67a2,2,0,0,0-2,2v1.67a2,2,0,0,0,2,2h48.5a14.49,14.49,0,0,0,28.33,0h48.59A1.92,1.92,0,0,0,190,64.17V62.33A1.92,1.92,0,0,0,188.08,60.42Zm-52.37,5.67a10.63,10.63,0,1,1,.45-3.08A10.83,10.83,0,0,1,135.72,66.08Z" transform="translate(-60.67 -48.5)"/></svg>