<svg id="Layer_1" data-name="Layer 1" xmlns="http://www.w3.org/2000/svg" viewBox="0 0 40.68 40.68"><title>00030</title><circle cx="20.34" cy="20.34" r="20.34" style="fill:#29b6f6"/><path d="M33.53,13.49l-4.8,21a0.62,0.62,0,0,1-1,.35L19,27.79a0.62,0.62,0,0,0-.16-0.09l-6.48-2.64a0.62,0.62,0,0,1-.06-1.13L32.94,13A0.41,0.41,0,0,1,33.53,13.49Z" transform="translate(-4.53 -3.66)" style="fill:#fff"/><path d="M17.12,27l10.34-7.52a0.19,0.19,0,0,1,.27.27L21,29.39l-1,3.93a0.41,0.41,0,0,1-.3-0.19Z" transform="translate(-4.53 -3.66)" style="fill:#cfd8dc"/><path d="M20.25,33.27l2.42-2.49L21,29.39l-1,3.93A0.58,0.58,0,0,0,20.25,33.27Z" transform="translate(-4.53 -3.66)" style="fill:#b0bec5"/></svg>