<?xml version="1.0" encoding="utf-8"?>
<!-- Generator: Adobe Illustrator 19.2.1, SVG Export Plug-In . SVG Version: 6.00 Build 0)  -->
<svg version="1.1" id="Layer_1" xmlns="http://www.w3.org/2000/svg" xmlns:xlink="http://www.w3.org/1999/xlink" x="0px" y="0px"
	 viewBox="0 0 370.7 248.1" style="enable-background:new 0 0 370.7 248.1;" xml:space="preserve">
<title>00031</title>
<circle cx="138.4" cy="49.8" r="7.1"/>
<path d="M261.9,184.2H30c-16.6,0-30,13.4-30,30s13.4,30,30,30h231.9c16.6,0,30-13.4,30-30S278.5,184.2,261.9,184.2z M58.6,223.6h-26
	c-5.3,0-9.6-4.3-9.6-9.6c0-5.3,4.3-9.6,9.6-9.6h26c5.3,0,9.6,4.3,9.6,9.7C68.3,219.3,64,223.6,58.6,223.6z M126.2,223.6h-26
	c-5.3,0-9.6-4.3-9.6-9.6c0-5.3,4.3-9.6,9.6-9.6h26c5.3,0,9.6,4.3,9.6,9.7C135.9,219.3,131.6,223.6,126.2,223.6L126.2,223.6z
	 M193.9,223.6h-26c-5.3,0-9.6-4.3-9.6-9.6c0-5.3,4.3-9.6,9.6-9.6h26c5.3,0,9.6,4.3,9.6,9.7C203.5,219.3,199.2,223.6,193.9,223.6
	L193.9,223.6z M261.5,223.6h-26c-5.3,0-9.6-4.3-9.6-9.6c0-5.3,4.3-9.6,9.6-9.6h26c5.3,0,9.6,4.3,9.6,9.7
	C271.1,219.3,266.8,223.6,261.5,223.6L261.5,223.6z"/>
<path d="M368.4,111.4h-7.8c-8.8,9.2-16.2,19.7-21.8,31.1l-30.4-7.9V96.7c0-3.7-3-6.8-6.8-6.8h-8.4v-1.6c0-2.1-1.7-3.9-3.9-3.9h-23
	c-2.1,0-3.9,1.7-3.9,3.9V90h-11.9V41c0-2.3-1.9-4.3-4.3-4.3h0c-2.3,0-4.3,1.9-4.3,4.3v49h-17.7c-2.8,0-5.3-1.8-6.3-4.4L187.3,4.4
	c-1-2.6-3.5-4.4-6.3-4.4H45.8c-2.8,0-5.3,1.8-6.3,4.4l-38.9,102c-0.1,0.8-0.1,1.6,0,2.4v61.8c0,3.7,3,6.8,6.8,6.8h263.9
	c20.6,0,30.4,27,30.4,27c3.7,0,6.7-3,6.8-6.6v-18.4l21.3,5.6c2.7,35.1,30.9,63.1,30.9,63.1h10.2
	C327.8,179.6,368.4,111.4,368.4,111.4z M22.7,147.6h-3.3c-0.9,0-1.7-0.8-1.7-1.7c0,0,0,0,0,0v-28.7c0-0.9,0.8-1.7,1.7-1.7h3.2
	c0.9,0,1.7,0.8,1.7,1.7v28.6l0.2,0.1C24.4,146.8,23.6,147.6,22.7,147.6z M36.7,147.6h-3.3c-0.9,0-1.7-0.8-1.7-1.7c0,0,0,0,0,0v-28.7
	c0-0.9,0.8-1.7,1.7-1.7h3.1c0.9,0,1.7,0.8,1.7,1.7v28.6l0.3,0.1C38.4,146.8,37.7,147.6,36.7,147.6z M50.8,147.6h-3.3
	c-0.9,0-1.7-0.8-1.7-1.7c0,0,0,0,0-0.1v-28.7c0-0.9,0.8-1.7,1.7-1.7h3.1c0.9,0,1.7,0.8,1.7,1.7c0,0,0,0,0,0v28.7l0.2,0.1
	C52.5,146.8,51.7,147.6,50.8,147.6z M64.9,147.6h-3.3c-0.9,0-1.7-0.8-1.7-1.7c0,0,0,0,0,0v-28.7c0-0.9,0.8-1.7,1.7-1.7h3.1
	c0.9,0,1.7,0.8,1.7,1.7v28.6l0.2,0.1C66.5,146.8,65.8,147.6,64.9,147.6z M79.6,68.2H53.3V23.1h26.3V68.2z M138.4,90.7L138.4,90.7
	c0.4-6.1,1.2-12.1,2.6-18.1c5.6,2.7,11.8,4.1,18,4l1.8,14.1H138.4z M164.3,90.5l2.1-19.2c0.6-0.2,1-0.7,1.1-1.3
	c0-0.9-0.7-1.6-1.6-1.6c-0.9,0-1.6,0.7-1.6,1.6c-0.1,0.6,0.2,1.1,0.7,1.4L162.9,91L161,76.8c4.5-1.1,0-5.2,0-5.2h-1.4
	c0.5-0.3,0.8-0.9,0.7-1.4c0-0.9-0.7-1.6-1.6-1.6c-0.9,0-1.6,0.7-1.6,1.6c0.1,0.6,0.5,1,1.1,1.2c-6.2-0.3-12-3.2-16.1-7.8
	c-3.8-2.9-9-2.9-12.8,0c-3.6,2.3-5.8,18.7-6.7,27h-22.3V22.8h66.9l27,67.6H164.3z M248,147.6h-3.3c-0.9,0-1.7-0.7-1.8-1.7
	c0,0,0-0.1,0-0.1v-28.7c0-0.9,0.8-1.7,1.7-1.7h3.1c0.9,0,1.7,0.8,1.7,1.7v28.7l0.2,0.1C249.7,146.8,248.9,147.5,248,147.6z
	 M262.1,147.6h-3.3c-0.9,0-1.7-0.8-1.7-1.7c0,0,0,0,0-0.1v-28.7c0-0.9,0.8-1.7,1.7-1.7h3.1c0.9,0,1.7,0.8,1.7,1.7v28.7l0.3,0.1
	C263.8,146.8,263,147.6,262.1,147.6z M276.2,147.6h-3.3c-0.9,0-1.7-0.8-1.7-1.7v-28.7c0-0.9,0.8-1.7,1.7-1.7h3.1
	c0.9,0,1.7,0.8,1.7,1.7v28.6l0.2,0.1C277.8,146.8,277.1,147.6,276.2,147.6z M290.2,147.6H287c-0.9,0-1.7-0.8-1.7-1.7v-28.7
	c0-0.9,0.8-1.7,1.7-1.7h3.1c0.9,0,1.7,0.8,1.7,1.7v28.6l0.2,0.1C291.9,146.8,291.1,147.6,290.2,147.6z"/>
</svg>
