<svg id="Layer_1" data-name="Layer 1" xmlns="http://www.w3.org/2000/svg" viewBox="0 0 194.28 104.27"><title>00032</title><path d="M207.56,171H108.84A9.79,9.79,0,0,0,99,180.77h0a9.79,9.79,0,0,0,9.79,9.79h98.72a9.79,9.79,0,0,0,9.79-9.79h0A9.79,9.79,0,0,0,207.56,171Zm-4.73,2.9s-2.46,1.63-2.85,3.25H189.83a7,7,0,0,0-3.29-3.25h16.29Zm-24.42,0s-2.46,1.63-2.85,3.25H165.42a7,7,0,0,0-3.29-3.25h16.29Zm-24.42,0s-2.46,1.63-2.85,3.25H141a7,7,0,0,0-3.29-3.25H154Zm-24.42,0s-2.46,1.63-2.85,3.25H116.58a7,7,0,0,0-3.29-3.25h16.29Zm-27.15,6.89a6.89,6.89,0,1,1,6.89,6.89A6.89,6.89,0,0,1,102.44,180.77Zm10.85,6.87a7,7,0,0,0,3.29-3.25h10.15c0.39,1.63,2.85,3.25,2.85,3.25H113.29Zm13.59-6.87a6.89,6.89,0,1,1,6.89,6.89A6.89,6.89,0,0,1,126.88,180.77Zm10.83,6.87a7,7,0,0,0,3.29-3.25h10.15c0.39,1.63,2.85,3.25,2.85,3.25H137.71Zm13.61-6.87a6.89,6.89,0,1,1,6.89,6.89A6.89,6.89,0,0,1,151.32,180.77Zm10.8,6.87a7,7,0,0,0,3.29-3.25h10.15c0.39,1.63,2.85,3.25,2.85,3.25H162.12Zm13.64-6.87a6.89,6.89,0,1,1,6.89,6.89A6.89,6.89,0,0,1,175.76,180.77Zm10.78,6.87a7,7,0,0,0,3.29-3.25H200c0.39,1.63,2.85,3.25,2.85,3.25H186.54Zm20.55,0a6.89,6.89,0,1,1,6.89-6.89A6.89,6.89,0,0,1,207.1,187.66Z" transform="translate(-23.62 -86.28)"/><path d="M109.32,175a5.74,5.74,0,1,0,5.74,5.74A5.74,5.74,0,0,0,109.32,175Zm0,7a1.28,1.28,0,1,1,1.28-1.28A1.28,1.28,0,0,1,109.32,182Z" transform="translate(-23.62 -86.28)"/><path d="M133.77,175a5.74,5.74,0,1,0,5.74,5.74A5.74,5.74,0,0,0,133.77,175Zm0,7a1.28,1.28,0,1,1,1.28-1.28A1.28,1.28,0,0,1,133.77,182Z" transform="translate(-23.62 -86.28)"/><path d="M158.21,175a5.74,5.74,0,1,0,5.74,5.74A5.74,5.74,0,0,0,158.21,175Zm0,7a1.28,1.28,0,1,1,1.28-1.28A1.28,1.28,0,0,1,158.21,182Z" transform="translate(-23.62 -86.28)"/><path d="M182.65,175a5.74,5.74,0,1,0,5.74,5.74A5.74,5.74,0,0,0,182.65,175Zm0,7a1.28,1.28,0,1,1,1.28-1.28A1.28,1.28,0,0,1,182.65,182Z" transform="translate(-23.62 -86.28)"/><path d="M207.1,175a5.74,5.74,0,1,0,5.74,5.74A5.74,5.74,0,0,0,207.1,175Zm0,7a1.28,1.28,0,1,1,1.28-1.28A1.28,1.28,0,0,1,207.1,182Z" transform="translate(-23.62 -86.28)"/><rect x="97.81" y="81.95" width="48.83" height="1.92"/><path d="M213.35,146.67v-4.55a0.77,0.77,0,0,0-.77-0.77h-1.05V139l0.78-.75,0.08-1-1.64,1.47v2.56h-1a0.77,0.77,0,0,0-.77.77v4.55H207.1v-2a0.77,0.77,0,0,0-.77-0.77h-1.58v-1.23a0.77,0.77,0,0,0-.77-0.77H182.24a0.77,0.77,0,0,0-.77.77v1.23h-1.58a0.77,0.77,0,0,0-.77.77v2h-3.7a4.6,4.6,0,0,1-4.6-4.6v-19.8a4.6,4.6,0,0,0-4.6-4.6H132.54a4.6,4.6,0,0,0-3.77,2l-6.39,9.14c-4-6.7-15.73-25.08-26-27.93-1.07-1.26-3.46-4.05-4.19-4.84-1.66-1.78-24.82-3.24-24.82-3.24a0.67,0.67,0,0,0-.75.58L30,90.45,27.19,86.7a1,1,0,0,0-1.45-.22h0l0,0a1,1,0,0,0-.26.27l-1.82,1.87L24,114.69a0.27,0.27,0,0,0,.27.27h0.16L25,134l-1.17,1,0.87,1.22,0.56-.41,6.82,10.91,3.9,0.53,1.35,2.66s10,4,12-1.88,4.5-15,4.5-15l-3.75,2.67h-15V100c8.6,1.19,49.7,7.14,57.75,13,1.59,1.15,3.7,2.92,6,5l6.92,14.5,0.71-.34-0.84.4a1,1,0,0,0-.46,1.31l5.52,11.56-0.05.07a4.6,4.6,0,0,0-.83,2.64v14.7a4.6,4.6,0,0,0,4.6,4.6H213.3a4.6,4.6,0,0,0,4.6-4.6V151.26A4.6,4.6,0,0,0,213.35,146.67ZM25.52,115h0.27a0.21,0.21,0,0,0,.21-0.2l0.68-14.49,3.2,29.46-3.55,3.12Zm7.14,29.81-6.18-9.84,3.66-2.69,0.48,4.41,3.52,6.9Zm0.93-49.64-2.14-2.82,35.11,2.77v0.1a0.68,0.68,0,0,0,.55.67l21.94,2.59a0.68,0.68,0,0,1,.46.34L90,99.61C72.22,97,34.66,95.18,33.59,95.13Zm75.11,37.05a1,1,0,0,0-1.31-.46l-0.13.06-5.26-11c6,5.47,12.48,11.91,15.53,14.95l-4.25,6.08Zm47.16,19.75-7,10.29a1.69,1.69,0,0,1-1.4.74H118.94a1.69,1.69,0,0,1-1.69-1.69V150.53a1.69,1.69,0,0,1,1.71-1.69l35.52,0.46A1.69,1.69,0,0,1,155.86,151.94Zm3.63-9.31a2.59,2.59,0,0,1-2.59,2.59H120a1,1,0,0,1-.8-1.53L133,123.51a2.59,2.59,0,0,1,2.13-1.12H156.9a2.59,2.59,0,0,1,2.59,2.59v17.66Zm35,17.75h-1.33v-7.92h1.33v7.92Zm3.17,0h-1.33v-7.92h1.33v7.92Zm3.17,0H199.5v-7.92h1.33v7.92Zm3.17,0h-1.33v-7.92H204v7.92Zm3.17,0h-1.33v-7.92h1.33v7.92Zm3.17,0H209v-7.92h1.33v7.92Zm3.17,0h-1.33v-7.92h1.33v7.92Z" transform="translate(-23.62 -86.28)"/></svg>