<svg id="Layer_1" data-name="Layer 1" xmlns="http://www.w3.org/2000/svg" viewBox="0 0 375.88 237.21"><title>31</title><circle cx="130.88" cy="54.87" r="8.72"/><path d="M-71-7.68H-300.16A34.73,34.73,0,0,0-334.88,27a34.73,34.73,0,0,0,34.73,34.73H-71A34.73,34.73,0,0,0-36.32,27,34.73,34.73,0,0,0-71-7.68ZM-275.39,37.77h-23.84A10.77,10.77,0,0,1-310,27a10.77,10.77,0,0,1,10.77-10.77h23.84A10.76,10.76,0,0,1-264.62,27,10.76,10.76,0,0,1-275.39,37.77Zm68.14,0h-23.84A10.77,10.77,0,0,1-241.86,27a10.77,10.77,0,0,1,10.77-10.77h23.84A10.77,10.77,0,0,1-196.48,27,10.77,10.77,0,0,1-207.25,37.77Zm68.14,0H-163A10.77,10.77,0,0,1-173.8,27,10.77,10.77,0,0,1-163,16.24h23.92A10.77,10.77,0,0,1-128.34,27,10.77,10.77,0,0,1-139.11,37.77Zm68.14,0H-94.74A10.77,10.77,0,0,1-105.5,27,10.77,10.77,0,0,1-94.74,16.24h23.84A10.76,10.76,0,0,1-60.17,27,10.76,10.76,0,0,1-71,37.77Z" transform="translate(334.88 175.44)"/><path d="M22.17-80.37L9.05-78.6A107.57,107.57,0,0,0-5.61-36.7l-19.83-6.48V-76.9A5.56,5.56,0,0,0-31-82.46H-43.11v-1.77a6.25,6.25,0,0,0-6.25-6.25H-71a6.25,6.25,0,0,0-6.25,6.25v1.77H-93.58v-37.89a5.83,5.83,0,0,0-5.83-5.83,5.83,5.83,0,0,0-5.83,5.83v37.89h-8.41a5.56,5.56,0,0,1-5.4-3.86l-20.84-84.88a5.56,5.56,0,0,0-5.4-4.24H-286.5a5.56,5.56,0,0,0-5.25,3.55L-334.5-60.31a5.57,5.57,0,0,0,0,2v41a5.56,5.56,0,0,0,5.56,5.56H-60.17C-44.12-11.77-31,11.38-31,11.38a5.56,5.56,0,0,0,5.56-5.56V-23.89l20.06,6.48v1.08c5.25,32.1,33.34,54,33.34,54l13-2.16C-16.41-31.14,22.17-80.37,22.17-80.37ZM-309.65-37.47h-4.55V-64.79h4.55v27.32Zm6.71,0V-64.79h4.24v27.32h-4.24Zm11.27,0V-64.79h4.24v27.32h-4.24Zm11.27,0V-64.79h4.24v27.32h-4.24Zm2.93-66.36v-50.85h27.63v50.78l0.31,0.08h-27.93Zm72.85,23.3,0.31-.15a98.09,98.09,0,0,1,2.7-14.51c1.23,5.56,17,6.64,22.46,5.17l1.93,9.49h-27.39Zm29.4,0.15,0.31-.31,1.23-6.79a3.39,3.39,0,0,0,2.16-2.93,2.32,2.32,0,0,0-.35-3.26,2.31,2.31,0,0,0-3.26.35,2.31,2.31,0,0,0-.41,2.14,3.4,3.4,0,0,0,1,3.47l-1.31,6.95L-178.46-90a2.16,2.16,0,0,0,0-.54h0.39c1.77-2.62,0-3.63,0-3.63a2.32,2.32,0,0,0-2.24-1.7,1.7,1.7,0,0,0-1.16,1.16,36.88,36.88,0,0,1-21.07-10.88,8.57,8.57,0,0,0-11.73-3,8.56,8.56,0,0,0-3.7,4.48A85.41,85.41,0,0,0-225.69-80h-12.12v-73.85h80.56l16.75,73.46h-34.73Zm97.08,42.91H-82.7V-64.79h4.55v27.32Zm5.63,0V-64.79h4.24v27.32h-4.24Zm9.8,0V-64.79h4.63v27.32h-4.63Zm10.57,0V-64.79h4.24v27.32h-4.24Z" transform="translate(334.88 175.44)"/></svg>