<svg id="Layer_1" data-name="Layer 1" xmlns="http://www.w3.org/2000/svg" viewBox="0 0 131.02 37.38"><title>tanks-icon</title><path d="M100.21,73.59H17.39c-6.17,0-5.64,7-5.64,7l2-.08s-0.47-5,4.64-5c3,0.08,78.11,0,80.36,0,5.06,0,5,5,5,5L106,80.59S105.25,73.59,100.21,73.59Z" transform="translate(-11.74 -49.49)"/><polygon points="70.26 11.63 21.89 11.63 10.89 23.13 84.26 23.13 70.26 11.63"/><path d="M86.09,56.2c0-2.21-3.79-4-6-4h-24l-3,8h29A4,4,0,0,0,86.09,56.2Z" transform="translate(-11.74 -49.49)"/><rect x="47.57" width="11.81" height="1.75"/><path d="M85.5,59.74h4.88V56.2l-1.79-2.33H86.5C88.42,58.07,85.5,59.74,85.5,59.74Z" transform="translate(-11.74 -49.49)"/><polygon points="79.57 6.44 124.48 6.44 124.48 4.38 78.01 4.38 79.57 6.44"/><rect x="124.9" y="3.5" width="6.13" height="3.88"/><path d="M98.91,76.21H18.14a3.37,3.37,0,0,0-1.2,6.53L27.8,86.87H91.2l9.06-3.58A3.67,3.67,0,0,0,98.91,76.21ZM18.13,81.72a2,2,0,1,1,2-2A2,2,0,0,1,18.13,81.72ZM26.51,84a3.2,3.2,0,1,1,3.2-3.2A3.2,3.2,0,0,1,26.51,84Zm11.24,1.68a4.18,4.18,0,1,1,4.18-4.18A4.18,4.18,0,0,1,37.75,85.72Zm12.08,0A4.18,4.18,0,1,1,54,81.54,4.18,4.18,0,0,1,49.84,85.72Zm12.08,0a4.18,4.18,0,1,1,4.18-4.18A4.18,4.18,0,0,1,61.92,85.72Zm12.08,0a4.18,4.18,0,1,1,4.18-4.18A4.18,4.18,0,0,1,74,85.72Zm12.08,0a4.18,4.18,0,1,1,4.18-4.18A4.18,4.18,0,0,1,86.09,85.72Zm12.66-3.56A2.27,2.27,0,1,1,101,79.89,2.27,2.27,0,0,1,98.75,82.16Z" transform="translate(-11.74 -49.49)"/><circle cx="26.01" cy="32.05" r="1.23"/><circle cx="14.77" cy="31.34" r="0.9"/><circle cx="6.39" cy="30.18" r="0.66"/><circle cx="38.09" cy="32.05" r="1.23"/><circle cx="50.18" cy="32.05" r="1.23"/><circle cx="62.26" cy="32.05" r="1.23"/><circle cx="74.34" cy="32.05" r="1.23"/><circle cx="87.01" cy="30.4" r="0.82"/></svg>